<svg width="64" height="64" viewBox="0 0 64 64" fill="none" xmlns="http://www.w3.org/2000/svg">
<rect width="64" height="64" rx="32" fill="#F1F6FA"/>
<path d="M38.3333 40C38.3333 38.837 38.3333 38.2555 38.1898 37.7824C37.8666 36.717 37.033 35.8834 35.9676 35.5602C35.4945 35.4167 34.913 35.4167 33.75 35.4167H29.5833C28.4204 35.4167 27.8389 35.4167 27.3657 35.5602C26.3004 35.8834 25.4667 36.717 25.1435 37.7824C25 38.2555 25 38.837 25 40M35.4167 28.75C35.4167 30.8211 33.7377 32.5 31.6667 32.5C29.5956 32.5 27.9167 30.8211 27.9167 28.75C27.9167 26.6789 29.5956 25 31.6667 25C33.7377 25 35.4167 26.6789 35.4167 28.75Z" stroke="#A4ABBE" stroke-width="1.5" stroke-linecap="round" stroke-linejoin="round"/>
</svg>
