<svg width="20" height="20" viewBox="0 0 20 20" fill="none" xmlns="http://www.w3.org/2000/svg">
<path fill-rule="evenodd" clip-rule="evenodd" d="M10.0013 1.04163C5.05375 1.04163 1.04297 5.05241 1.04297 9.99996C1.04297 14.9475 5.05375 18.9583 10.0013 18.9583C14.9489 18.9583 18.9596 14.9475 18.9596 9.99996C18.9596 5.05241 14.9489 1.04163 10.0013 1.04163ZM2.29297 9.99996C2.29297 5.74277 5.74411 2.29163 10.0013 2.29163C11.9051 2.29163 13.6476 2.98177 14.9925 4.12551C14.9869 4.13067 14.9815 4.13595 14.976 4.14135L4.14271 14.9745C4.13728 14.98 4.13196 14.9855 4.12677 14.991C2.98308 13.6462 2.29297 11.9037 2.29297 9.99996ZM5.01005 15.8743C6.3549 17.0181 8.0975 17.7083 10.0013 17.7083C14.2585 17.7083 17.7096 14.2571 17.7096 9.99996C17.7096 8.09621 17.0195 6.35364 15.8757 5.00881C15.8705 5.01436 15.8653 5.01984 15.8599 5.02524L5.02658 15.8584C5.02115 15.8638 5.01563 15.8691 5.01005 15.8743Z" fill="#233566"/>
</svg>
