<svg width="16" height="16" viewBox="0 0 16 16" fill="none" xmlns="http://www.w3.org/2000/svg">
<path d="M11.0785 3.0531C11.3264 2.80525 11.6625 2.66602 12.013 2.66602C12.1866 2.66602 12.3585 2.7002 12.5188 2.76662C12.6791 2.83303 12.8248 2.93038 12.9476 3.0531C13.0703 3.17582 13.1676 3.32151 13.234 3.48186C13.3005 3.6422 13.3346 3.81405 13.3346 3.98761C13.3346 4.16116 13.3005 4.33302 13.234 4.49336C13.1676 4.6537 13.0703 4.79939 12.9476 4.92212L5.68227 12.1874C5.34052 12.5291 4.9123 12.7716 4.44342 12.8888L2.66797 13.3327L3.11183 11.5572C3.22905 11.0883 3.4715 10.6601 3.81326 10.3184L11.0785 3.0531Z" stroke="#233566" stroke-opacity="0.4" stroke-width="1.2" stroke-linecap="round" stroke-linejoin="round"/>
<path d="M9.33594 4.66602L11.3359 6.66602" stroke="#233566" stroke-opacity="0.4" stroke-width="1.2" stroke-linejoin="round"/>
<path d="M8.66797 13.334L13.3346 13.334" stroke="#233566" stroke-opacity="0.4" stroke-width="1.2" stroke-linecap="round" stroke-linejoin="round"/>
</svg>
