<svg width="196" height="80" viewBox="0 0 196 80" fill="none" xmlns="http://www.w3.org/2000/svg">
<g clip-path="url(#clip0_430_2037)">
<path fill-rule="evenodd" clip-rule="evenodd" d="M9.10608 36.3623L11.8294 51.8161L14.2329 65.4458L75.5642 54.6303C83.0901 53.3031 88.1175 46.123 86.7903 38.5971L86.7774 38.5366L81.9835 11.3378C81.3221 7.57704 77.7299 5.06121 73.9691 5.72692L73.9258 5.73556L60.3394 8.13036L24.4432 14.4589L12.6378 16.5424C8.87266 17.2038 6.36115 20.7917 7.02686 24.5568L9.10608 36.3623Z" fill="#0047FF"/>
<path fill-rule="evenodd" clip-rule="evenodd" d="M74.0126 5.71771C73.347 1.95693 69.7591 -0.558905 65.994 0.1068L65.9507 0.11544L11.4797 9.7206C3.95377 11.0477 -1.07359 18.2235 0.253494 25.7494L6.26213 59.8214C6.92782 63.5864 10.5157 66.098 14.2765 65.4366C11.8774 51.807 16.3558 44.0606 13.9523 30.4309C13.2866 26.6658 16.2996 22.8273 20.0647 22.1659L73.9695 5.7264L74.0126 5.71771Z" fill="#00B3FF"/>
<path fill-rule="evenodd" clip-rule="evenodd" d="M80.0204 39.7927L74.0119 5.7207L73.9687 5.72937L12.6806 16.5362C8.91981 17.1976 6.40399 20.7899 7.06969 24.5506L14.2757 65.4395C13.6143 61.6745 16.1259 58.0866 19.891 57.4209L74.4053 47.8113C78.1703 47.1457 80.6818 43.5577 80.0204 39.7927Z" fill="#0000B0"/>
<path d="M168.465 64.937C169.897 68.633 173.148 71.5464 178.088 71.5464H188.934C189.388 71.5464 189.76 71.9182 189.76 72.3721V78.5278C189.76 78.986 189.388 79.349 188.934 79.349H178.088C161.212 79.349 153.353 58.8766 164.861 47.2354C176.614 35.3391 197.688 43.8464 195.847 62.8361C195.816 63.2684 195.461 63.6055 195.021 63.6055H173.791C173.337 63.6055 172.965 63.2382 172.965 62.7843V56.8793C172.965 56.4255 173.337 56.0537 173.791 56.0537H187.187C184.157 46.7858 167.528 47.4039 167.615 60.4197C167.623 61.9585 167.912 63.5019 168.465 64.937ZM130.56 56.3087V78.3419C130.56 78.7871 130.196 79.1588 129.738 79.1588H123.393C122.938 79.1588 122.575 78.7871 122.575 78.3419V42.7873C122.575 42.3334 122.938 41.9616 123.393 41.9616H129.738C130.196 41.9616 130.56 42.3334 130.56 42.7873V46.4054C134.1 44.0581 139.162 41.7714 143.247 41.7714C151.296 41.7714 156.44 47.5637 156.44 56.1143V78.3419C156.44 78.7871 156.072 79.1588 155.619 79.1588H149.277C148.823 79.1588 148.451 78.7871 148.451 78.3419V55.7339C148.451 52.3448 146.009 49.4486 142.425 49.4486C137.995 49.4486 134.135 51.865 130.56 54.6704V56.3087ZM109.443 41.9616H115.784C116.238 41.9616 116.606 42.3334 116.606 42.7873V78.3419C116.606 78.7871 116.238 79.1588 115.784 79.1588H109.443C108.989 79.1588 108.617 78.7871 108.617 78.3419V42.7873C108.617 42.3334 108.989 41.9616 109.443 41.9616ZM109.227 37.0077C106.175 34.2411 108.297 29.3262 112.611 29.3262C116.917 29.3262 119.173 34.2109 116.035 37.0034C114.15 38.6849 111.107 38.7108 109.227 37.0077ZM95.3247 29.0883L101.826 27.8046C102.28 27.8046 102.652 28.1719 102.652 28.6258V78.3419C102.652 78.7871 102.28 79.1588 101.826 79.1588H95.4847C95.0309 79.1588 94.6634 78.7871 94.6634 78.3419V29.8968C94.6634 29.512 94.9314 29.1662 95.3247 29.0883ZM64.0843 54.6704V78.3419C64.0843 78.7871 63.7167 79.1588 63.2629 79.1588H56.9171C56.4632 79.1588 56.0958 78.7871 56.0958 78.3419V42.7873C56.0958 42.3334 56.4632 41.9616 56.9171 41.9616H61.992C62.3767 41.9616 62.7269 42.2382 62.7961 42.6317L63.5742 46.7554C67.1966 44.2397 72.5092 41.7714 76.7714 41.7714C84.8162 41.7714 89.9602 47.5637 89.9602 56.1143V78.3419C89.9602 78.7871 89.5971 79.1588 89.1432 79.1588H82.7974C82.3435 79.1588 81.9762 78.7871 81.9762 78.3419V55.7339C81.9762 52.3448 79.5295 49.4486 75.9458 49.4486C71.5193 49.4486 67.6591 51.865 64.0843 54.6704ZM19.3004 47.326C31.8364 35.1704 52.0929 44.5249 52.0929 60.4975C52.0929 76.6948 31.75 85.9412 19.2875 73.7641C11.7357 66.3894 11.6622 54.7353 19.3004 47.326ZM40.7976 52.9673C33.4748 45.9471 21.5829 51.3895 21.5829 60.4975C21.5829 69.8304 33.5569 75.1603 40.8105 68.1272C45.1678 63.9082 45.2457 57.2295 40.7976 52.9673Z" fill="#040E24"/>
<path d="M34.2116 54.891C33.2563 54.6966 32.2749 54.7397 31.3456 54.9731C30.6971 55.1374 30.0748 55.3882 29.5084 55.7211L19.8903 57.4154C16.1252 58.0812 13.6137 61.6691 14.275 65.4342L11.4609 49.4487C12.5849 47.3997 14.0373 45.476 15.8183 43.747C17.6382 41.9833 19.592 40.5784 21.6237 39.5106C26.638 36.8695 32.0978 36.2469 37.1943 37.2066C42.2433 38.1576 46.942 40.6778 50.4911 44.3392C50.6942 44.5467 50.8931 44.7584 51.0877 44.9746V42.7873C51.0877 41.1749 51.7404 39.7181 52.7951 38.6634C53.8498 37.6086 55.3066 36.9558 56.9148 36.9558H61.9896C63.3556 36.9558 64.6697 37.4574 65.7029 38.3219C66.0487 38.6115 66.3643 38.94 66.641 39.2989C67.3282 38.9877 68.0328 38.6936 68.7417 38.4255C71.409 37.4184 74.1884 36.7656 76.7691 36.7656C77.4478 36.7656 78.1827 36.8089 78.9651 36.891C79.151 36.9083 79.3326 36.9385 79.5184 36.9645L80.0199 39.7873C80.5127 42.5971 79.2418 45.3075 76.9982 46.7772C76.9247 46.7772 76.8469 46.7772 76.7691 46.7772C75.4377 46.7772 73.8599 47.1663 72.2604 47.7715C71.6985 47.9833 71.1365 48.221 70.5832 48.4804L34.2116 54.891Z" fill="#0000B0"/>
<path d="M34.6606 54.8124C33.5495 54.5055 32.391 54.5184 31.2975 54.7951C30.4847 54.9982 29.7153 55.344 29.0366 55.8023L19.8896 57.4147C16.1245 58.0803 13.613 61.6682 14.2744 65.4333L11.5078 49.7375C12.6404 47.6279 14.1188 45.6524 15.943 43.8757C17.7499 42.1251 19.6908 40.7331 21.7051 39.6697C26.6851 37.0501 32.1014 36.432 37.159 37.3873C42.1734 38.3296 46.8377 40.8325 50.3608 44.4679C50.672 44.7879 50.9745 45.1164 51.2686 45.458V42.7864C51.2686 41.2259 51.904 39.8166 52.9241 38.7922C53.9443 37.7721 55.3579 37.1409 56.9141 37.1409H61.9889C63.3117 37.1409 64.5827 37.6251 65.5855 38.4594C65.9616 38.7706 66.2944 39.1295 66.5798 39.527C67.3104 39.1899 68.0539 38.8787 68.8059 38.5933C71.4558 37.5948 74.2093 36.9507 76.7685 36.9507C77.4428 36.9507 78.169 36.9897 78.9471 37.0718C79.146 37.0934 79.3492 37.1236 79.5523 37.1495L80.0193 39.7864C80.4947 42.4882 79.3362 45.0948 77.257 46.5992C77.1056 46.5948 76.9414 46.5948 76.7685 46.5948C75.4155 46.5948 73.816 46.9882 72.1949 47.5977C71.4255 47.8916 70.6604 48.2287 69.9169 48.5962L34.6606 54.8124Z" fill="#0000AE"/>
<path d="M35.0591 54.7411C33.8142 54.3174 32.4914 54.3043 31.255 54.6157C30.2911 54.8576 29.392 55.29 28.6181 55.8736L19.8906 57.4124C16.1254 58.0782 13.6139 61.6661 14.2753 65.4312L11.5605 50.0292C12.6974 47.8591 14.1975 45.8232 16.0735 44.0077C17.8676 42.2655 19.7911 40.8823 21.7926 39.8318C26.7335 37.2296 32.1066 36.6157 37.1253 37.5625C42.1009 38.5004 46.7348 40.986 50.232 44.5912C50.6555 45.0278 51.0618 45.4816 51.4553 45.9528V42.7843C51.4553 41.2756 52.0648 39.9097 53.0547 38.9197C54.0445 37.9298 55.4106 37.3203 56.9149 37.3203H61.9898C63.2694 37.3203 64.5014 37.7915 65.4697 38.5998C65.8716 38.9327 66.2261 39.3174 66.5201 39.754C67.2896 39.3953 68.0762 39.0624 68.8716 38.7641C71.4999 37.7698 74.2362 37.1301 76.7693 37.1301C77.4393 37.1301 78.1613 37.169 78.9263 37.2511C79.1469 37.2728 79.3673 37.3073 79.5877 37.3376L80.02 39.7843C80.4783 42.3822 79.4192 44.8981 77.4868 46.424C77.2708 46.4153 77.0329 46.4067 76.7693 46.4067C75.3903 46.4067 73.7693 46.8088 72.1311 47.4269C71.1714 47.79 70.216 48.2266 69.2996 48.7022L35.0591 54.7411Z" fill="#0000AD"/>
<path d="M35.4144 54.6795C35.3712 54.6623 35.3237 54.6449 35.276 54.6277C33.949 54.1392 32.5354 54.1089 31.2126 54.4418C30.1147 54.7185 29.0902 55.2372 28.2428 55.9461L19.8913 57.4158C16.1262 58.0816 13.6147 61.6694 14.2761 65.4346L11.6133 50.3265C12.7502 48.096 14.2804 46.0037 16.1997 44.1407C17.9806 42.4116 19.8913 41.0413 21.8797 39.9951C26.7775 37.4145 32.1117 36.8049 37.0917 37.7472C42.0326 38.6767 46.6277 41.1407 50.1031 44.72C50.6435 45.2775 51.1535 45.8612 51.6376 46.4707V42.7876C51.6376 41.3309 52.23 40.0081 53.1852 39.0527C54.1405 38.0974 55.459 37.5053 56.9158 37.5053H61.9906C63.227 37.5053 64.42 37.9591 65.3537 38.7415C65.7818 39.096 66.1535 39.5152 66.4518 39.9908C67.2644 39.6104 68.0944 39.256 68.9374 38.9361C71.5439 37.9505 74.2587 37.3151 76.7702 37.3151C77.4402 37.3151 78.1534 37.3582 78.91 37.436C79.1434 37.462 79.3811 37.4966 79.6189 37.5311L80.021 39.7876C80.4618 42.2906 79.4979 44.7198 77.6953 46.2587C77.4272 46.2372 77.1202 46.2285 76.7702 46.2285C75.3695 46.2285 73.7269 46.6349 72.0713 47.2573C70.9258 47.6896 69.789 48.2256 68.7212 48.8093L60.763 50.2098C60.6895 50.1536 60.6203 50.0888 60.5513 50.0282V50.2486L35.4144 54.6795Z" fill="#0000AB"/>
<path d="M35.7478 54.626C35.6137 54.5654 35.4753 54.5092 35.3414 54.4575C33.9796 53.9559 32.5229 53.9257 31.17 54.2671C29.9422 54.574 28.8054 55.1793 27.8975 56.0093L19.8918 57.4185C16.1267 58.0842 13.6152 61.672 14.2766 65.4372L11.6699 50.6317C12.8068 48.3363 14.3587 46.1837 16.3299 44.273C18.0935 42.5611 19.9912 41.1995 21.9624 40.1577C26.8255 37.5987 32.1208 36.9977 37.0619 37.9272C41.9638 38.8522 46.5242 41.2989 49.9695 44.8522C50.6309 45.5309 51.2491 46.2485 51.8198 47.0049V42.7902C51.8198 41.3811 52.3904 40.1058 53.3154 39.1851C54.2361 38.2643 55.5113 37.6895 56.9162 37.6895H61.9912C63.1886 37.6895 64.334 38.1303 65.2376 38.8825C65.6914 39.2629 66.0805 39.7125 66.383 40.2268C67.239 39.8206 68.1164 39.4444 69.0026 39.1117C71.592 38.1303 74.2807 37.4993 76.7706 37.4993C77.4362 37.4993 78.1409 37.5424 78.8888 37.6202C79.1438 37.6462 79.3989 37.6851 79.6539 37.7239L80.0214 39.7902C80.4451 42.2067 79.5631 44.5453 77.8859 46.0927C77.5747 46.0625 77.2029 46.0496 76.7706 46.0496C75.3484 46.0496 73.6842 46.456 72.007 47.0914C70.6885 47.5886 69.3788 48.2196 68.1727 48.9069L61.0056 50.1691C60.7765 49.9962 60.5646 49.8018 60.3701 49.5812V50.2816L35.7478 54.626Z" fill="#0000A9"/>
<path d="M45.7452 52.8558C45.5765 52.5963 45.3994 52.3456 45.2178 52.0992C45.3215 52.3629 45.3994 52.631 45.4469 52.9075L36.0621 54.5632C35.8417 54.4551 35.6212 54.3599 35.4007 54.2778C34.0044 53.7635 32.5132 53.7332 31.1212 54.0834C29.7726 54.4249 28.5319 55.1121 27.5723 56.0589L19.8906 57.4119C19.2985 57.5157 18.7409 57.6928 18.2178 57.9305C18.153 57.654 18.1184 57.3687 18.1141 57.0791C18.0276 57.4119 17.9541 57.749 17.8936 58.0905C15.287 59.4479 13.7394 62.3831 14.2755 65.4306L11.7207 50.9278C12.8619 48.5676 14.4354 46.3542 16.4541 44.396C18.2092 42.6972 20.0895 41.3443 22.0477 40.3154C26.872 37.7736 32.1241 37.1771 37.0261 38.1021C41.8892 39.0185 46.4194 41.4437 49.8387 44.971C50.6212 45.7794 51.343 46.6396 52.0044 47.5516V42.7836C52.0044 41.4264 52.5535 40.1986 53.4439 39.3082C54.3301 38.4177 55.5621 37.8687 56.9151 37.8687H61.9901C63.1442 37.8687 64.2508 38.2923 65.1197 39.0185C65.5995 39.4163 66.0059 39.9048 66.3084 40.4581C67.2075 40.0257 68.1283 39.628 69.0621 39.2736C71.6341 38.3052 74.3013 37.6785 76.7695 37.6785C77.4309 37.6785 78.1311 37.7175 78.8704 37.7952C79.1427 37.8212 79.415 37.8644 79.6874 37.9033L80.0203 39.7836C80.4309 42.1137 79.6226 44.3745 78.0577 45.9176L78.0232 45.9134H78.0059C77.6643 45.8788 77.2537 45.8615 76.7695 45.8615C75.3213 45.8615 73.6356 46.2721 71.9411 46.9119C70.4541 47.4739 68.9799 48.2045 67.6485 48.9911L61.2552 50.1194C60.8617 49.8471 60.5073 49.5012 60.2177 49.0863L60.183 49.0388V50.3096L45.7452 52.8558Z" fill="#0000A8"/>
<path d="M45.9402 52.8247C45.4084 51.999 44.7989 51.2338 44.1202 50.5378C41.8378 48.1819 38.8118 46.561 35.5568 45.9471C32.3406 45.3376 28.9041 45.7265 25.7658 47.378C24.4559 48.0696 23.1937 48.9773 22.018 50.1185C20.3839 51.7007 19.1996 53.5118 18.4559 55.4183C18.1015 56.3216 17.8464 57.2554 17.6908 58.2064C15.2053 59.607 13.7529 62.4643 14.2759 65.4341L11.7773 51.2425C12.9142 48.8131 14.5136 46.535 16.58 44.5336C18.322 42.8434 20.1895 41.5032 22.1346 40.4787C26.9199 37.9585 32.1289 37.3664 36.9919 38.2828C41.8205 39.195 46.3162 41.6026 49.7095 45.1042C50.6174 46.0379 51.4473 47.0537 52.1865 48.1344V42.7871C52.1865 41.4816 52.7181 40.2972 53.5741 39.4413C54.43 38.5855 55.61 38.0537 56.9155 38.0537H61.9904C63.1015 38.0537 64.1648 38.4601 65.0033 39.1603C65.5091 39.5796 65.9328 40.1027 66.2269 40.7035C67.1691 40.2454 68.146 39.8217 69.1273 39.45C71.6778 38.4861 74.3276 37.8635 76.7699 37.8635C77.427 37.8635 78.1186 37.9024 78.8492 37.9803C79.1389 38.0105 79.4285 38.0537 79.7224 38.097L80.0207 39.7871C80.4141 42.035 79.6793 44.218 78.2225 45.7569C78.1619 45.7483 78.1015 45.744 78.0409 45.7354H78.0278C77.6778 45.7007 77.2584 45.679 76.7699 45.679C75.3002 45.679 73.5927 46.0985 71.8766 46.7468C70.2254 47.3693 68.5957 48.1992 67.1475 49.0854L61.5193 50.0753C61.0783 49.803 60.685 49.4399 60.3694 48.986C60.2224 48.7785 60.1015 48.5581 60.002 48.3332V50.3434L45.9402 52.8247ZM18.3911 57.8606C18.8623 57.6617 19.3638 57.5105 19.8912 57.4154L27.2615 56.1185L27.2961 56.0797C28.3033 55.0335 29.6303 54.2727 31.0784 53.9096C32.5049 53.5509 34.0309 53.5853 35.466 54.1128C35.7687 54.2252 36.0668 54.3548 36.3609 54.5148L45.2657 52.9412C45.1447 52.2541 44.8378 51.5883 44.3406 51.0263C44.2714 50.9486 44.1331 50.8059 43.9256 50.5897C43.7787 50.4341 43.6273 50.287 43.4804 50.1445C41.8464 48.5796 40.0352 47.4774 38.1504 46.7856C35.1851 45.6921 32.0641 45.6142 29.1851 46.3362C26.332 47.058 23.6995 48.5754 21.6807 50.6761C20.3148 52.0983 19.2298 53.7842 18.5338 55.6689C18.2657 56.3951 18.2313 57.1559 18.3911 57.8606Z" fill="#0000A6"/>
<path d="M46.1335 52.7878C45.5888 51.9275 44.9534 51.1323 44.2532 50.4061C41.9405 48.0242 38.8799 46.3858 35.5903 45.7633C32.3353 45.1496 28.8598 45.5429 25.6825 47.2157C24.3555 47.9117 23.0803 48.8283 21.8871 49.9866C20.2358 51.5862 19.0385 53.419 18.2863 55.347C17.9103 56.3153 17.6422 57.3094 17.4866 58.321C15.1264 59.7604 13.769 62.5444 14.2748 65.4319L11.8281 51.5559C12.965 49.0573 14.5903 46.7143 16.7085 44.6611C18.4376 42.9839 20.292 41.6524 22.2158 40.6366C26.9621 38.1424 32.132 37.5501 36.9563 38.4622C41.7501 39.3657 46.207 41.7561 49.5787 45.2273C50.6163 46.2995 51.5542 47.4751 52.367 48.7417V42.785C52.367 41.527 52.877 40.3902 53.7026 39.5688C54.524 38.7432 55.6608 38.2332 56.9144 38.2332H61.9893C63.0571 38.2332 64.0816 38.6265 64.8857 39.3008C65.4174 39.7417 65.854 40.2995 66.1392 40.9435C67.1291 40.4593 68.1536 40.0098 69.1911 39.6164C71.7242 38.6611 74.3482 38.043 76.7689 38.043C77.4217 38.043 78.109 38.0818 78.8308 38.1597C79.1377 38.1899 79.4447 38.2374 79.7516 38.2849L80.0195 39.785C80.3999 41.955 79.7299 44.0645 78.3727 45.5904C78.2688 45.5775 78.1652 45.5644 78.0571 45.5515H78.044C77.6853 45.5127 77.2617 45.4954 76.7689 45.4954C75.2775 45.4954 73.5483 45.919 71.8107 46.5718C69.9994 47.2547 68.2141 48.184 66.6665 49.1654L61.7949 50.0257C61.302 49.7576 60.8612 49.3729 60.5154 48.88C60.1652 48.37 59.9534 47.8036 59.8799 47.2288L59.8194 46.8959V50.3757L46.1335 52.7878ZM18.5586 57.7893C18.9823 57.625 19.4275 57.4954 19.8901 57.4133L26.9665 56.1682C27.0313 56.0947 27.0961 56.0212 27.1653 55.9522C28.1941 54.88 29.5514 54.1019 31.0341 53.7301C32.4909 53.3628 34.0558 53.3974 35.5255 53.9377C35.9059 54.0759 36.2776 54.2533 36.645 54.4608L45.0874 52.9737C44.9707 52.3166 44.6767 51.6812 44.2012 51.1452C44.132 51.0675 43.998 50.9248 43.7949 50.7128C43.6479 50.5617 43.501 50.4147 43.3539 50.2763C41.7372 48.7288 39.9477 47.6394 38.0889 46.9522C35.158 45.8758 32.0759 45.7979 29.2272 46.5112C26.4087 47.2245 23.8065 48.72 21.8094 50.8036C20.4649 52.2043 19.3887 53.8686 18.7056 55.7274C18.455 56.4147 18.4159 57.1235 18.5586 57.7893Z" fill="#0000A4"/>
<path d="M46.328 52.7571C45.7661 51.8622 45.1091 51.0366 44.3829 50.2844C42.0443 47.8767 38.9491 46.2167 35.6248 45.5899C32.331 44.9675 28.8123 45.3652 25.5961 47.0598C24.256 47.7644 22.9679 48.6893 21.7618 49.8609C20.089 51.4818 18.8786 53.3321 18.1135 55.2859C17.7158 56.3148 17.4348 57.3781 17.2792 58.4544C15.0486 59.9285 13.782 62.6346 14.2748 65.4358L11.8887 51.8795C13.0169 49.3118 14.6639 46.8998 16.8338 44.7946C18.5501 43.1303 20.3915 41.8119 22.3022 40.8047C27.0097 38.3277 32.1365 37.7398 36.9261 38.6433C41.6812 39.5381 46.1032 41.9114 49.4448 45.3608C50.6248 46.5755 51.671 47.9243 52.5484 49.3811V42.7887C52.5484 41.5827 53.0413 40.4892 53.8279 39.7024C54.6191 38.9114 55.7128 38.4229 56.9145 38.4229H61.9894C63.0139 38.4229 63.9995 38.7989 64.7733 39.443C65.331 39.9055 65.7762 40.5065 66.0485 41.1981C67.0859 40.6836 68.1666 40.2038 69.2559 39.7932C71.7675 38.8421 74.3698 38.2327 76.7688 38.2327C77.4173 38.2327 78.096 38.2715 78.8092 38.345C79.1334 38.3796 79.4619 38.4271 79.7861 38.479L80.0196 39.7887C80.3871 41.881 79.7732 43.9171 78.5153 45.4301C78.3726 45.4083 78.2257 45.391 78.0787 45.3737H78.0657C77.6939 45.3349 77.266 45.3177 76.7688 45.3177C75.2559 45.3177 73.5009 45.7456 71.7458 46.407C69.779 47.1505 67.8423 48.1793 66.1997 49.2513L62.0975 49.9775C61.5398 49.7225 61.0426 49.3163 60.6666 48.7801C60.3295 48.296 60.1306 47.7556 60.0614 47.211L59.7416 45.5078H59.6335V50.4098L46.328 52.7571ZM18.7316 57.7282C19.1034 57.5943 19.488 57.4905 19.8901 57.417L26.6854 56.2196C26.7935 56.0856 26.9102 55.9559 27.0312 55.8305C28.0861 54.7326 29.4737 53.9372 30.9909 53.5568C32.4823 53.1808 34.0861 53.2154 35.5904 53.7729C36.0399 53.9372 36.4895 54.1533 36.9218 54.417L44.9058 53.0079C44.7977 52.3811 44.5168 51.7801 44.0629 51.2701C43.9938 51.1923 43.8598 51.0496 43.6609 50.8421C43.5182 50.6952 43.3757 50.5481 43.2286 50.4098C41.6335 48.8839 39.8612 47.8075 38.024 47.1288C35.1321 46.0611 32.0846 45.9876 29.2748 46.6923C26.4865 47.3969 23.9102 48.8753 21.9391 50.9329C20.6119 52.3163 19.5528 53.9589 18.8786 55.7959C18.6408 56.4358 18.602 57.1014 18.7316 57.7282Z" fill="#0000A3"/>
<path d="M46.5249 52.7212C45.9458 51.7918 45.2714 50.9359 44.515 50.1578C42.1546 47.7198 39.025 46.0426 35.6576 45.4071C32.3248 44.7804 28.767 45.1823 25.512 46.8942C24.159 47.6075 22.8536 48.5454 21.6346 49.7255C19.9443 51.3681 18.7168 53.2399 17.9473 55.2199C17.5194 56.3134 17.234 57.446 17.0784 58.5916C14.9732 60.0959 13.8017 62.7198 14.2772 65.4344L11.9473 52.2024C13.0669 49.5613 14.7398 47.0844 16.9659 44.923C18.6648 43.276 20.4934 41.9619 22.391 40.9634C27.0596 38.508 32.1432 37.9244 36.8939 38.8192C41.61 39.7097 46.002 42.0656 49.3174 45.4848C50.6446 46.8509 51.7987 48.3856 52.7368 50.0584V42.7875C52.7368 41.6334 53.2036 40.5872 53.9602 39.8308C54.7166 39.07 55.7628 38.603 56.9169 38.603H61.9919C62.9731 38.603 63.9155 38.9619 64.659 39.58C65.2425 40.0685 65.6963 40.7084 65.9514 41.4519C67.0364 40.9028 68.1734 40.397 69.3231 39.9604C71.8175 39.0225 74.3981 38.4128 76.7713 38.4128C77.4154 38.4128 78.0898 38.4519 78.7943 38.5253C79.1359 38.5642 79.4817 38.6117 79.8232 38.6679L80.0221 39.7875C80.3765 41.8063 79.8188 43.7688 78.6474 45.2644C78.4702 45.2342 78.2887 45.2125 78.0985 45.191H78.0854C77.7094 45.1521 77.2727 45.1304 76.7713 45.1304C75.2323 45.1304 73.4601 45.5627 71.6835 46.2328C69.5652 47.0368 67.473 48.165 65.7569 49.3322L62.4413 49.9157C61.8059 49.6866 61.231 49.2674 60.8203 48.6708C60.5004 48.2125 60.3102 47.7025 60.2454 47.1838L59.8952 45.3206H59.4544V50.443L46.5249 52.7212ZM18.9112 57.6664C19.2268 57.5627 19.5553 57.4762 19.8924 57.4158L26.4113 56.2659C26.5669 56.0713 26.7311 55.8813 26.904 55.7039C27.9804 54.58 29.3982 53.7673 30.9458 53.3782C32.4761 52.9936 34.1143 53.0324 35.6532 53.5988C36.1806 53.789 36.695 54.0483 37.1922 54.3683L44.7311 53.0368C44.6273 52.4445 44.3592 51.8739 43.9313 51.3898C43.8578 51.3121 43.7282 51.1694 43.5336 50.9706C43.391 50.8236 43.2483 50.6809 43.1056 50.5426C41.5279 49.0339 39.7814 47.9706 37.9659 47.3005C35.1042 46.2458 32.0957 46.1722 29.3203 46.8682C26.5625 47.5642 24.0208 49.0253 22.0754 51.0569C20.7613 52.423 19.7195 54.044 19.0495 55.8551C18.8291 56.4561 18.7945 57.0786 18.9112 57.6664Z" fill="#0000A1"/>
<path d="M52.8347 50.6224C52.8649 50.6785 52.8909 50.7347 52.9168 50.7953V42.7853C52.9168 41.6785 53.3664 40.68 54.0882 39.9538C54.8144 39.232 55.813 38.7824 56.9153 38.7824H61.9903C62.9282 38.7824 63.8318 39.1282 64.5407 39.7203C65.1501 40.2261 65.6127 40.9135 65.8375 41.7131C66.9787 41.1252 68.1718 40.5892 69.3865 40.1311C71.859 39.1974 74.4182 38.5922 76.7697 38.5922C77.4096 38.5922 78.0796 38.631 78.7712 38.7045C79.1343 38.7435 79.4931 38.7953 79.8562 38.8558L80.0205 39.7853C80.362 41.7304 79.8562 43.6238 78.7712 45.0936C78.5637 45.0633 78.3433 45.033 78.1142 45.007H78.1011C77.7165 44.9682 77.2755 44.9466 76.7697 44.9466C75.2092 44.9466 73.411 45.3832 71.6171 46.0619C69.3735 46.9091 67.1602 48.1238 65.3836 49.3602L65.3188 49.4034L62.8419 49.84C62.107 49.6671 61.4326 49.2348 60.9658 48.5647C60.6675 48.1326 60.4902 47.6483 60.4254 47.1598L60.045 45.1368H59.2713V50.471L46.718 52.6842C46.1214 51.7203 45.4254 50.8343 44.643 50.0258C42.2569 47.5662 39.0926 45.8674 35.6907 45.2276C32.3189 44.5922 28.718 44.9985 25.4285 46.7319C24.058 47.4537 22.7397 48.4005 21.5077 49.5936C19.8002 51.2536 18.5552 53.1512 17.7772 55.1527C17.3232 56.3154 17.0251 57.5215 16.8737 58.7406C14.8982 60.262 13.8132 62.8039 14.2757 65.4322L12.002 52.5331C13.1172 49.814 14.8117 47.2635 17.0899 45.0547C18.78 43.4163 20.5913 42.1153 22.4716 41.1252C27.1057 38.6872 32.146 38.1081 36.8577 38.9985C41.5393 39.8803 45.8967 42.2189 49.1862 45.608C50.6257 47.095 51.8621 48.7767 52.8347 50.6224ZM19.0827 57.608C19.3464 57.5301 19.6143 57.4653 19.891 57.4134L26.146 56.3112C26.3405 56.0518 26.548 55.8054 26.7728 55.5719C27.8708 54.4264 29.3189 53.5964 30.901 53.1987C32.4615 52.8054 34.1389 52.8442 35.7166 53.4235C36.3088 53.6439 36.8923 53.938 37.45 54.3184L44.548 53.0691C44.4486 52.5071 44.1978 51.9669 43.7914 51.5086C43.7224 51.4307 43.5926 51.288 43.4024 51.0936C43.2598 50.9466 43.1171 50.8039 42.9789 50.6743C41.4184 49.1786 39.6935 48.1282 37.8995 47.4668C35.0768 46.4292 32.107 46.3558 29.3622 47.0431C26.6388 47.7304 24.1273 49.1742 22.2037 51.1801C20.9111 52.5287 19.878 54.1282 19.221 55.9177C19.0135 56.4797 18.9789 57.0589 19.0827 57.608Z" fill="#00009F"/>
<path d="M52.6748 50.7135C52.8217 50.9945 52.9212 51.2885 52.9731 51.5868L46.9082 52.6544C46.2988 51.6559 45.5812 50.735 44.7771 49.9052C42.3607 47.4152 39.1618 45.6991 35.7252 45.0506C32.3146 44.411 28.6748 44.8216 25.342 46.5767C23.9587 47.3029 22.6273 48.2626 21.3824 49.4686C19.6532 51.1458 18.3953 53.065 17.6042 55.0924C17.1244 56.3287 16.8132 57.6083 16.6749 58.9094C14.8248 60.4441 13.8305 62.8993 14.2758 65.4368L12.0625 52.8792C13.1648 50.0825 14.8809 47.4585 17.2196 45.1891C18.8924 43.5636 20.6908 42.2712 22.5582 41.29C27.1489 38.8735 32.1546 38.3029 36.8232 39.1804C41.4702 40.058 45.793 42.3749 49.0567 45.7424C50.4831 47.2121 51.7065 48.8807 52.6748 50.7135ZM80.0206 39.7899L79.8908 39.0508C79.5104 38.9858 79.1301 38.9341 78.754 38.8908C78.0666 38.8173 77.4052 38.7827 76.7698 38.7827C74.4398 38.7827 71.9024 39.3793 69.4514 40.3043C68.1719 40.7884 66.914 41.3634 65.7166 41.9858C65.5306 41.1257 65.0594 40.3951 64.424 39.8634C63.7453 39.3014 62.8851 38.9729 61.9904 38.9729H56.9154C55.865 38.9729 54.9097 39.4008 54.218 40.0882C53.5264 40.7798 53.0985 41.7352 53.0985 42.7899V51.0377C53.0985 51.215 53.1158 51.3879 53.146 51.5564L59.0854 50.5104V44.9599H60.1964L60.607 47.1429C60.6676 47.6012 60.8318 48.0593 61.1171 48.4657C61.6661 49.2524 62.5264 49.6977 63.4126 49.7452L64.7482 49.5117C64.9298 49.434 65.1113 49.3346 65.28 49.2134C67.0696 47.9729 69.2914 46.7496 71.5566 45.8937C73.3678 45.2106 75.1878 44.7697 76.7698 44.7697C77.2798 44.7697 77.7295 44.7914 78.1228 44.8302H78.1358C78.3951 44.8604 78.6503 44.895 78.8923 44.9341C79.8952 43.4901 80.3491 41.6617 80.0206 39.7899ZM19.2599 57.5607C19.4674 57.5045 19.6749 57.457 19.8909 57.4181L25.8909 56.3633C26.1158 56.0392 26.3665 55.7365 26.6389 55.4513C27.7628 54.2799 29.2411 53.4325 30.8578 53.0261C32.4529 52.6242 34.1647 52.663 35.7771 53.2554C36.4385 53.5017 37.0869 53.8389 37.7051 54.2799L44.3665 53.104C44.2758 52.5767 44.0379 52.0666 43.6575 51.6343C43.584 51.5522 43.4544 51.4139 43.2684 51.2237C43.1301 51.081 42.9918 50.9426 42.8536 50.8087C41.3146 49.3346 39.607 48.2972 37.8348 47.6444C35.0509 46.6199 32.1158 46.5463 29.4054 47.225C26.7166 47.9037 24.2354 49.3303 22.3376 51.3143C21.0581 52.6457 20.0423 54.2193 19.394 55.983C19.1993 56.506 19.1647 57.0506 19.2599 57.5607Z" fill="#00009E"/>
<path d="M52.5105 50.7969C52.6489 51.0606 52.744 51.3373 52.7915 51.6139L47.1028 52.6168C46.4803 51.5837 45.7368 50.6327 44.9069 49.7724C42.4645 47.2567 39.2354 45.5275 35.7598 44.8705C32.3103 44.2178 28.6272 44.6371 25.2556 46.4093C23.8592 47.1442 22.5107 48.1125 21.2527 49.3358C19.5062 51.0304 18.2354 52.9713 17.4357 55.0202C16.9257 56.3344 16.6057 57.7004 16.4718 59.0793C14.7556 60.6225 13.8478 62.9915 14.2758 65.4338L12.123 53.2263C12.1533 53.1486 12.1836 53.0751 12.2095 53.0016C13.2988 50.2047 15.0107 47.5809 17.3449 45.3158C19.0093 43.7033 20.7902 42.4238 22.6447 41.4469C27.1965 39.0521 32.159 38.4857 36.7887 39.359C41.3967 40.2278 45.6849 42.5275 48.9227 45.8647C50.3405 47.3259 51.5552 48.9771 52.5105 50.7969ZM80.0205 39.7869L79.9211 39.2423C79.5278 39.1688 79.1301 39.1125 78.7368 39.0694C78.0581 38.9959 77.4009 38.9613 76.7699 38.9613C74.4615 38.9613 71.95 39.5535 69.5162 40.4743C68.1632 40.9843 66.8362 41.5938 65.5783 42.2596L65.5567 42.1471C65.4054 41.2782 64.9471 40.5304 64.3074 40.0031C63.6633 39.4627 62.8419 39.1515 61.9903 39.1515H56.9154C55.9126 39.1515 55.0049 39.5579 54.3477 40.2149C53.6907 40.872 53.2844 41.784 53.2844 42.7869V51.0348C53.2844 51.199 53.2973 51.3633 53.3232 51.5231L58.904 50.5376V44.7711H60.3477L60.7887 47.114C60.8449 47.5507 61.0005 47.9742 61.2684 48.359C62.1546 49.6341 63.9053 49.9453 65.1763 49.0635C66.9745 47.8142 69.2137 46.5824 71.4917 45.7221C73.3247 45.0304 75.1618 44.5809 76.7699 44.5809C77.28 44.5809 77.7381 44.6024 78.1402 44.6457H78.1531C78.4472 44.6802 78.7324 44.7192 79.0005 44.7667C79.9255 43.3489 80.3361 41.5895 80.0205 39.7869ZM19.4372 57.5144C19.5841 57.4756 19.7355 57.4454 19.8911 57.4152L25.636 56.4036C25.8953 56.0188 26.1849 55.6557 26.5092 55.3229C27.6547 54.1254 29.1676 53.2609 30.8147 52.8459C32.44 52.4353 34.1951 52.4743 35.8421 53.0838C36.5683 53.3517 37.2814 53.7321 37.9559 54.2335L44.1892 53.1313C44.1028 52.6385 43.878 52.1587 43.5193 51.7523C43.4457 51.6702 43.316 51.5318 43.1387 51.346C43.0005 51.2077 42.8664 51.0694 42.7281 50.9396C41.2065 49.4829 39.525 48.4583 37.7743 47.8142C35.0249 46.7984 32.1288 46.7293 29.453 47.3993C26.7944 48.0694 24.3435 49.4785 22.4674 51.4367C21.2094 52.7509 20.2022 54.3027 19.5626 56.0447C19.3853 56.5332 19.3507 57.0348 19.4372 57.5144Z" fill="#00009C"/>
<path d="M52.3502 50.8777C52.4799 51.1283 52.5664 51.3835 52.6139 51.6472L47.297 52.5851C46.6572 51.5131 45.8964 50.5319 45.0361 49.6457C42.5721 47.104 39.3042 45.3533 35.794 44.6875C32.3057 44.0305 28.5795 44.454 25.1731 46.248C23.7595 46.9915 22.3979 47.9685 21.127 49.2005C19.3589 50.9165 18.0751 52.8792 17.2668 54.9541C16.722 56.3503 16.3935 57.7983 16.2725 59.2638C14.686 60.807 13.8647 63.0852 14.2754 65.4325L12.1875 53.5794C12.248 53.4065 12.3129 53.238 12.3777 53.0649C13.4584 50.2942 15.1572 47.6919 17.4699 45.444C19.1212 43.8445 20.8892 42.5737 22.7264 41.6096C27.2436 39.2321 32.163 38.6702 36.7581 39.5348C41.3272 40.3993 45.5808 42.6774 48.7925 45.9929C50.1974 47.4369 51.4036 49.0793 52.3502 50.8777ZM80.0201 39.7854L79.9553 39.431C79.5447 39.3533 79.1297 39.2927 78.7146 39.2494C78.0446 39.1804 77.3963 39.1414 76.7695 39.1414C74.487 39.1414 71.9928 39.7293 69.5764 40.6414C68.1586 41.1774 66.7579 41.8302 65.4438 42.5391L65.379 42.1804L65.3834 42.176C65.2363 41.3503 64.7955 40.6457 64.1902 40.1399C63.5764 39.6298 62.8026 39.3316 61.9899 39.3316H56.9151C55.9641 39.3316 55.0995 39.7206 54.4769 40.3432C53.8546 40.9699 53.4655 41.8302 53.4655 42.7854V51.0333C53.4655 51.1889 53.4784 51.3402 53.5043 51.4872L58.722 50.5707V44.5881H60.4986L60.9698 47.0909C61.0216 47.493 61.1687 47.895 61.4193 48.2538C62.2449 49.4426 63.8833 49.7365 65.072 48.9108C66.879 47.6529 69.1311 46.4166 71.4265 45.5477C73.2766 44.8475 75.1398 44.3978 76.7695 44.3978C77.2838 44.3978 77.7507 44.4196 78.1613 44.4627H78.17C78.4986 44.4973 78.8098 44.5449 79.1081 44.5967C79.9553 43.2091 80.3228 41.519 80.0201 39.7854ZM19.6139 57.4698C19.7047 57.4483 19.7956 57.431 19.8906 57.4137L25.3892 56.4454C25.6789 55.9959 26.0074 55.5809 26.3747 55.196C27.5463 53.9727 29.0895 53.0909 30.7667 52.6672C32.4309 52.248 34.2206 52.2912 35.9021 52.9094C36.6975 53.2032 37.4712 53.6227 38.2018 54.1889L44.0074 53.1644C43.9252 52.6976 43.7176 52.2524 43.3848 51.872C43.3027 51.7854 43.1773 51.6514 43.0044 51.4698C42.8748 51.336 42.7364 51.1975 42.6023 51.0679C41.0981 49.6328 39.4382 48.6212 37.7091 47.9814C34.9943 46.9828 32.137 46.9138 29.4959 47.5752C26.8719 48.2365 24.4511 49.6284 22.5968 51.5606C21.3561 52.8574 20.3662 54.3877 19.735 56.1038C19.5664 56.5577 19.5362 57.029 19.6139 57.4698Z" fill="#00009B"/>
<path d="M52.19 50.9633C52.3109 51.1924 52.3887 51.4345 52.4319 51.6766L47.4868 52.5498C46.834 51.4431 46.0515 50.4316 45.1655 49.5196C42.6755 46.9475 39.3728 45.1795 35.8239 44.5094C32.3008 43.8436 28.5315 44.2716 25.0863 46.0872C23.6597 46.835 22.2807 47.825 20.9968 49.0699C19.2117 50.8033 17.9147 52.7875 17.0935 54.8884C16.5185 56.3667 16.1814 57.9099 16.0733 59.4662C14.6165 61.0007 13.8816 63.1837 14.275 65.4316L12.252 53.946C12.3471 53.6737 12.4465 53.4014 12.5502 53.129C13.6179 50.384 15.2995 47.8033 17.5993 45.5772C19.2332 43.9907 20.9882 42.7284 22.8125 41.7689C27.2909 39.4129 32.1669 38.8552 36.723 39.7155C41.2576 40.5713 45.4767 42.8322 48.6625 46.1174C50.0545 47.5525 51.2476 49.178 52.19 50.9633ZM80.0199 39.7847L79.9895 39.6203C79.5616 39.5426 79.1292 39.4778 78.6971 39.4303C78.0357 39.361 77.3916 39.3264 76.7691 39.3264C74.5083 39.3264 72.0357 39.9099 69.6409 40.8134C68.1495 41.3754 66.6798 42.0672 65.3095 42.8149L65.197 42.2097C65.0587 41.4231 64.6481 40.7573 64.0731 40.2774C63.494 39.7976 62.7589 39.5166 61.9896 39.5166H56.9147C56.0156 39.5166 55.1985 39.8797 54.6063 40.4719C54.0141 41.0642 53.6466 41.8812 53.6466 42.7847V51.0325C53.6466 51.1751 53.6597 51.3178 53.6856 51.456L58.54 50.6002V44.4056H60.6496L61.1509 47.0642C61.1985 47.4402 61.3325 47.812 61.566 48.1491C62.3354 49.2557 63.8613 49.5282 64.9679 48.7587C66.7878 47.4965 69.053 46.2515 71.3612 45.3783C73.2331 44.6694 75.1178 44.2154 76.7691 44.2154C77.2878 44.2154 77.7589 44.2371 78.1782 44.2802H78.1913C78.5457 44.3192 78.8829 44.3712 79.2071 44.4316C79.9852 43.0742 80.3095 41.4489 80.0199 39.7847ZM19.7952 57.4345C19.8254 57.4258 19.8556 57.4214 19.8902 57.4128L25.1467 56.4877C25.4623 55.9734 25.8298 55.4978 26.2447 55.0657C27.4378 53.8206 29.0114 52.9215 30.723 52.4892C32.422 52.0613 34.2461 52.1045 35.9666 52.74C36.8225 53.0556 37.6567 53.5181 38.4435 54.1449L43.8254 53.1938C43.7519 52.7615 43.5573 52.3465 43.2461 51.9965C43.1683 51.9057 43.0429 51.7716 42.8744 51.5987C42.7403 51.4605 42.6107 51.3264 42.4767 51.201C40.9939 49.7788 39.3513 48.7803 37.6481 48.1535C34.9681 47.1679 32.1452 47.0988 29.5387 47.7516C26.9493 48.4043 24.5588 49.7788 22.7304 51.6853C21.5026 52.9648 20.53 54.4776 19.9033 56.1679C19.7519 56.5872 19.7217 57.0237 19.7952 57.4345Z" fill="#000099"/>
<path d="M52.0253 51.0522C52.1376 51.2641 52.2111 51.4845 52.2543 51.7094L47.6765 52.5177C47.0109 51.3765 46.2068 50.3304 45.2991 49.3923C42.7789 46.7987 39.4418 45.0091 35.8581 44.3347C32.2961 43.6604 28.4878 44.0925 24.9993 45.9255C23.5598 46.6863 22.168 47.6849 20.8712 48.9427C19.0641 50.6935 17.7544 52.6992 16.9245 54.8261C16.315 56.3952 15.9648 58.0334 15.8783 59.6849C14.5512 61.2063 13.8985 63.2899 14.2746 65.4341L12.3164 54.3245C12.4418 53.9485 12.5758 53.5724 12.7184 53.2006C13.7818 50.4774 15.4461 47.9182 17.7242 45.7094C19.3495 44.1358 21.0873 42.8867 22.8986 41.9312C27.3337 39.597 32.1707 39.0437 36.6881 39.8953C41.1838 40.7467 45.3725 42.9903 48.5324 46.2454C49.9115 47.6676 51.0958 49.28 52.0253 51.0522ZM19.972 57.4024L24.9085 56.5335C25.2458 55.9543 25.652 55.4225 26.1146 54.9427C27.3293 53.6718 28.933 52.7554 30.6795 52.3144C32.4086 51.8778 34.2716 51.9211 36.031 52.5696C36.9474 52.9067 37.8423 53.4125 38.681 54.1041L43.6478 53.2266C43.5786 52.8289 43.397 52.4442 43.1116 52.12C43.0295 52.0292 42.9085 51.8996 42.7399 51.7267C42.6147 51.5926 42.4806 51.463 42.3466 51.3332C40.8855 49.9327 39.2645 48.9471 37.583 48.3289C34.9417 47.352 32.1578 47.2872 29.5815 47.9312C27.0267 48.5753 24.6666 49.9327 22.8596 51.8174C21.6535 53.0754 20.6896 54.5667 20.0757 56.231C19.933 56.6201 19.9071 57.022 19.972 57.4024ZM53.8667 51.4284L58.3538 50.6329V44.2223H60.8005L61.3321 47.045C61.3753 47.3952 61.5007 47.7366 61.7169 48.048C62.4302 49.0725 63.8393 49.3232 64.8638 48.6099C66.6924 47.3391 68.9704 46.0854 71.2961 45.208C73.1894 44.4947 75.0958 44.0321 76.7686 44.0321C77.2917 44.0321 77.7673 44.0581 78.1995 44.1014H78.2081C78.5885 44.1445 78.9516 44.1964 79.2974 44.2654C80.0065 42.9515 80.2961 41.3995 80.0238 39.8174C79.5742 39.7309 79.1245 39.6618 78.6751 39.6142C78.0266 39.5451 77.3869 39.5105 76.7686 39.5105C74.5294 39.5105 72.0829 40.0898 69.7053 40.9846C68.1405 41.5768 66.6016 42.3074 65.1794 43.0984L65.0152 42.2424C64.8855 41.5033 64.4965 40.8721 63.9561 40.4227C63.4114 39.9644 62.7154 39.7007 61.9892 39.7007H56.9143C56.0627 39.7007 55.2932 40.0465 54.7356 40.6042C54.1779 41.1618 53.8321 41.9356 53.8321 42.7872V51.0351C53.8321 51.169 53.8408 51.2986 53.8667 51.4284Z" fill="#000097"/>
<path d="M51.8665 51.1322C51.9702 51.3311 52.0394 51.5342 52.0739 51.7417L47.8722 52.481C47.1891 51.3051 46.3635 50.2287 45.4298 49.2648C42.8837 46.6408 39.5163 44.8339 35.894 44.151C32.2887 43.4723 28.4414 43.9089 24.9184 45.7634C23.4574 46.5285 22.0567 47.5401 20.7426 48.8109C18.9227 50.5789 17.5913 52.6106 16.757 54.759C16.1086 56.4189 15.7498 58.1611 15.685 59.9118C14.4876 61.4117 13.917 63.3959 14.2758 65.4318L12.3867 54.7115C12.538 54.2272 12.7023 53.7432 12.8882 53.2633C13.9429 50.5659 15.5942 48.0284 17.8549 45.8369C19.4631 44.2762 21.1878 43.0357 22.9818 42.0934C27.3824 39.7763 32.1762 39.2274 36.6546 40.0746C41.1157 40.9133 45.2655 43.1394 48.3996 46.3729C49.7699 47.782 50.9415 49.3771 51.8665 51.1322ZM20.1547 57.3699L24.6763 56.5703C25.0352 55.9304 25.476 55.3427 25.9818 54.8152C27.2224 53.5183 28.8564 52.5846 30.6375 52.135C32.4011 51.6898 34.3031 51.733 36.0926 52.3944C37.074 52.7575 38.0293 53.3066 38.9155 54.0588L43.4673 53.2591C43.4025 52.8916 43.2383 52.5371 42.9746 52.2388C42.8925 52.1437 42.7713 52.014 42.6115 51.8498C42.4861 51.7201 42.3563 51.5903 42.2224 51.4651C40.7785 50.0818 39.1834 49.1092 37.5235 48.4953C34.917 47.5357 32.1676 47.4708 29.6301 48.1063C27.1013 48.7417 24.7757 50.0818 22.9949 51.9406C21.8017 53.1812 20.8549 54.6509 20.2499 56.2935C20.1201 56.648 20.0899 57.0197 20.1547 57.3699ZM54.0451 51.3917L58.1733 50.6653V44.0385H60.9485L61.5149 47.0212C61.5537 47.3412 61.6704 47.6566 61.8693 47.942C62.522 48.88 63.8189 49.1135 64.7612 48.4607C66.5984 47.1812 68.8938 45.919 71.2324 45.037C73.1431 44.3152 75.0709 43.8483 76.7699 43.8483C77.2972 43.8483 77.7813 43.8743 78.218 43.9175H78.2267C78.6329 43.9608 79.022 44.0212 79.3895 44.0947C80.0032 42.8713 80.2626 41.4535 80.0551 40.0055C79.5926 39.9148 79.1258 39.8455 78.6589 39.7936C78.0148 39.7244 77.388 39.6899 76.7699 39.6899C74.5565 39.6899 72.1273 40.2648 69.7713 41.1552C68.133 41.7735 66.525 42.5472 65.0465 43.3815L64.8391 42.2705C64.7137 41.5747 64.3506 40.9823 63.8404 40.5588C63.3261 40.1308 62.6734 39.8801 61.9903 39.8801H56.9155C56.1157 39.8801 55.3895 40.2042 54.8665 40.7317C54.339 41.2547 54.0148 41.9809 54.0148 42.785V51.0328C54.0148 51.1538 54.0234 51.2749 54.0451 51.3917Z" fill="#000096"/>
<path d="M51.7053 51.2213C51.7961 51.3984 51.8609 51.5842 51.8911 51.7744L48.0612 52.4489C47.3652 51.2384 46.5223 50.1318 45.5583 49.1375C42.9907 46.4877 39.5843 44.6636 35.9272 43.9762C32.2831 43.2889 28.3926 43.7299 24.8307 45.6015C23.3567 46.3797 21.9387 47.3957 20.616 48.6794C18.7745 50.4691 17.4302 52.5224 16.5828 54.6923C15.8956 56.4561 15.5325 58.3062 15.4936 60.165C14.4302 61.6304 13.9374 63.5108 14.2746 65.4344L12.459 55.1202C12.6276 54.5194 12.8307 53.9186 13.0598 53.3307C14.1016 50.6549 15.7399 48.1434 17.9791 45.969C19.5742 44.4215 21.286 43.1939 23.0671 42.2557C27.4287 39.9604 32.1794 39.4201 36.6232 40.2544C41.0454 41.0887 45.1606 43.2975 48.2687 46.5006C49.6217 47.897 50.7889 49.4835 51.7053 51.2213ZM20.3307 57.3379L24.446 56.6161C24.822 55.9114 25.2976 55.2673 25.8509 54.6923C27.1175 53.3695 28.7774 52.4185 30.5885 51.9604C32.3912 51.5108 34.3278 51.554 36.1564 52.2285C37.1982 52.6131 38.2096 53.201 39.1433 54.0223L43.2889 53.2918C43.2284 52.9589 43.077 52.6347 42.8349 52.3623C42.7528 52.2673 42.636 52.1419 42.4805 51.9777C42.3551 51.8523 42.2254 51.7227 42.0958 51.5973C40.6736 50.2357 39.0958 49.276 37.4574 48.6708C34.8855 47.724 32.1752 47.6593 29.6721 48.2861C27.1779 48.9129 24.8826 50.2357 23.1232 52.0685C21.9518 53.2918 21.0137 54.74 20.4171 56.3609C20.3005 56.6851 20.2746 57.0223 20.3307 57.3379ZM54.2254 51.3638L57.9905 50.6982V43.8595H61.0986L61.6952 47.0022C61.7298 47.2918 61.8379 47.5815 62.015 47.8365C62.616 48.6967 63.7961 48.9085 64.6519 48.3119C66.502 47.0281 68.8104 45.7573 71.1663 44.8667C73.0986 44.1405 75.0481 43.6693 76.7686 43.6693C77.3002 43.6693 77.7887 43.691 78.2383 43.7385C78.6663 43.786 79.0813 43.8508 79.4703 43.9287C79.9977 42.8004 80.2312 41.5166 80.0756 40.1981C79.6 40.1031 79.1201 40.0296 78.6361 39.9777C78.0049 39.9085 77.3825 39.874 76.7686 39.874C74.577 39.874 72.1693 40.4446 69.8349 41.3264C68.1231 41.9748 66.4459 42.7875 64.9156 43.6693L64.6563 42.3077C64.5396 41.6549 64.198 41.0974 63.7226 40.6997C63.2428 40.3019 62.6289 40.0642 61.989 40.0642H56.9143C56.1663 40.0642 55.4876 40.371 54.9949 40.8639C54.5022 41.3566 54.1952 42.0353 54.1952 42.7875V51.0353C54.1952 51.1477 54.2081 51.2557 54.2254 51.3638Z" fill="#000094"/>
<path d="M51.5417 51.3068C51.6281 51.4668 51.6844 51.6353 51.7146 51.8039L48.2521 52.4178C47.5432 51.1685 46.6787 50.0273 45.6887 49.0115C43.0951 46.3357 39.6542 44.4898 35.9582 43.7938C32.2795 43.1022 28.3458 43.5474 24.745 45.4408C23.258 46.2232 21.8271 47.2521 20.4915 48.5489C18.6283 50.3558 17.2709 52.4307 16.415 54.6266C15.6888 56.4985 15.317 58.4653 15.3084 60.4364C14.3747 61.8586 13.9597 63.6266 14.2753 65.4335L12.5332 55.5388C12.7234 54.8168 12.9568 54.0993 13.2291 53.3946C14.2623 50.7448 15.8876 48.2549 18.1052 46.1022C19.6916 44.5633 21.3906 43.3443 23.1542 42.4149C27.4769 40.1411 32.1888 39.6051 36.5893 40.4351C40.9768 41.2608 45.0577 43.448 48.1398 46.6296C49.4799 48.0128 50.634 49.5821 51.5417 51.3068ZM20.513 57.3068L24.2219 56.6541C24.6152 55.8846 25.1254 55.1844 25.7176 54.5618C27.0101 53.2175 28.7047 52.2492 30.5462 51.7822C32.379 51.3241 34.3545 51.3674 36.2175 52.0547C37.3243 52.4609 38.3919 53.0921 39.3733 53.9826L43.1081 53.3212C43.0562 53.0186 42.9221 52.729 42.7017 52.4826C42.6152 52.3874 42.4985 52.2622 42.3473 52.1065C42.2262 51.9768 42.1008 51.8514 41.9711 51.7305C40.5662 50.3861 39.0102 49.4351 37.3977 48.8428C34.8603 47.9091 32.1888 47.8443 29.7161 48.4624C27.2565 49.0807 24.9914 50.386 23.258 52.193C22.0995 53.399 21.1786 54.8255 20.5909 56.4206C20.4828 56.7146 20.4611 57.0172 20.513 57.3068ZM54.4077 51.3328L57.8054 50.7319V43.6728H61.2506L61.8732 46.9754C61.9076 47.239 62.007 47.4985 62.167 47.7319C62.7075 48.5099 63.7752 48.7001 64.5489 48.1599C66.4119 46.8673 68.7334 45.5922 71.1022 44.6973C73.056 43.9581 75.0273 43.4869 76.7693 43.4869C77.3053 43.4869 77.7982 43.5086 78.2564 43.5561H78.265C78.7102 43.6036 79.1382 43.6728 79.5445 43.7594C79.9984 42.7262 80.2017 41.5719 80.0978 40.3875C79.6093 40.2882 79.1166 40.2103 78.6195 40.1584C77.9969 40.0936 77.3788 40.059 76.7693 40.059C74.5994 40.059 72.2175 40.6209 69.9004 41.4985C68.1151 42.1728 66.3644 43.033 64.7824 43.9581L64.4797 42.337C64.376 41.7275 64.0518 41.2088 63.6066 40.8415C63.1569 40.4653 62.5863 40.2492 61.9899 40.2492H56.915C56.2147 40.2492 55.5835 40.5346 55.1252 40.9927C54.6627 41.451 54.3817 42.0864 54.3817 42.7866V51.0345C54.3817 51.1339 54.3904 51.2333 54.4077 51.3328Z" fill="#000092"/>
<path d="M51.3841 51.3923C51.4575 51.5392 51.5095 51.6906 51.5354 51.8418L48.4446 52.3866C47.7227 51.1027 46.8365 49.9312 45.825 48.885C43.201 46.1833 39.7299 44.3203 35.995 43.6201C32.2774 42.9154 28.3049 43.3693 24.6652 45.2842C23.1609 46.0752 21.717 47.1128 20.364 48.4225C18.4836 50.2467 17.1132 52.3433 16.2487 54.5652C15.4749 56.5494 15.1032 58.6416 15.1291 60.7294C14.3208 62.0997 13.9836 63.751 14.2775 65.4369L12.6133 55.9788C12.8164 55.1314 13.0801 54.2885 13.4 53.4672C14.4245 50.839 16.0369 48.3708 18.2371 46.2352C19.8064 44.7094 21.4921 43.5033 23.2386 42.5825C27.5225 40.326 32.1953 39.7944 36.557 40.6157C40.9057 41.437 44.9561 43.607 48.0123 46.7583C49.3393 48.1286 50.485 49.6849 51.3841 51.3923ZM20.6969 57.28L23.9994 56.6963C24.41 55.862 24.9504 55.1054 25.5901 54.4398C26.9042 53.0695 28.6291 52.0797 30.5052 51.6085C32.3726 51.1415 34.3826 51.1848 36.2846 51.885C37.4476 52.3131 38.5757 52.9917 39.6045 53.9427L42.9287 53.3592C42.8812 53.0868 42.7645 52.8274 42.5656 52.607C42.4792 52.5118 42.3625 52.3866 42.2198 52.2352C42.0988 52.1099 41.9734 51.9845 41.8481 51.8679C40.4605 50.5365 38.9302 49.6028 37.3351 49.0148C34.8366 48.094 32.1997 48.0292 29.7617 48.6431C27.3365 49.2568 25.1018 50.5407 23.3899 52.326C22.253 53.5103 21.3452 54.9154 20.7659 56.4888C20.6709 56.7482 20.6492 57.0205 20.6969 57.28ZM54.5872 51.3015L57.6262 50.7655V43.4947H61.4041L62.0569 46.9528C62.0872 47.1905 62.1736 47.424 62.3207 47.6315C62.8004 48.3275 63.7558 48.496 64.4474 48.0161C66.3192 46.7151 68.6579 45.4312 71.044 44.5276C73.0108 43.7841 75.0079 43.3045 76.7717 43.3045C77.3119 43.3045 77.8135 43.3304 78.2802 43.3779C78.7472 43.4299 79.1966 43.4989 79.6203 43.5897C80.0007 42.656 80.1779 41.6315 80.113 40.5768C79.6159 40.4774 79.1103 40.3995 78.6001 40.3433C77.9864 40.2785 77.3767 40.2439 76.7717 40.2439C74.6232 40.2439 72.2629 40.8059 69.9676 41.6703C68.1088 42.375 66.2846 43.2785 64.6549 44.2468L64.3005 42.3708C64.201 41.8088 63.907 41.329 63.4921 40.9832C63.0771 40.6372 62.5454 40.4341 61.9921 40.4341H56.9171C56.2688 40.4341 55.6809 40.6978 55.253 41.1257C54.8293 41.5494 54.5656 42.1373 54.5656 42.79V51.0379C54.5656 51.1286 54.5743 51.215 54.5872 51.3015Z" fill="#000091"/>
<path d="M51.2178 51.4766C51.2869 51.602 51.3302 51.736 51.3561 51.8699L48.6327 52.3499C47.8978 51.0313 46.9901 49.8295 45.9527 48.7575C43.3027 46.0256 39.7971 44.1451 36.0276 43.4362C32.2711 42.7273 28.2552 43.1855 24.5767 45.1179C23.0593 45.9175 21.5982 46.968 20.2366 48.2906C18.3346 50.1322 16.9512 52.2547 16.0738 54.4981C15.2568 56.6034 14.8807 58.8295 14.9498 61.0472C14.2712 62.3482 14.0032 63.8743 14.2755 65.4348L12.6934 56.4392C12.9052 55.4535 13.1991 54.4808 13.5709 53.53C14.5824 50.9277 16.1775 48.4808 18.3605 46.3628C19.9168 44.854 21.5896 43.6524 23.323 42.7402C27.568 40.5055 32.1976 39.9781 36.5204 40.7951C40.8345 41.6077 44.8461 43.7605 47.8805 46.8859C49.1946 48.2431 50.3272 49.782 51.2178 51.4766ZM20.872 57.2431L23.7726 56.7331C24.2005 55.8382 24.7755 55.0256 25.4541 54.3123C26.7942 52.9161 28.5493 51.9089 30.46 51.4291C32.3576 50.9535 34.4108 51.0011 36.3432 51.7143C37.5708 52.1639 38.7509 52.8815 39.8273 53.9017L42.7494 53.3873C42.7063 53.1494 42.6025 52.9203 42.4296 52.7259C42.3388 52.6264 42.2265 52.5055 42.0838 52.3584C41.9671 52.2374 41.8461 52.112 41.7207 51.9953C40.3546 50.6855 38.8417 49.7647 37.2725 49.1855C34.8085 48.2777 32.2062 48.2129 29.8072 48.8181C27.4123 49.4233 25.2035 50.6898 23.5176 52.4491C22.3979 53.6163 21.5031 54.9997 20.9324 56.5471C20.8503 56.7806 20.8332 57.0183 20.872 57.2431ZM54.7667 51.2691L57.4425 50.7979V43.3109H61.5535L62.2364 46.929C62.2624 47.1365 62.3403 47.3397 62.4699 47.5255C62.8936 48.135 63.7321 48.2864 64.3416 47.8627C66.2221 46.553 68.5736 45.2648 70.977 44.3571C72.9656 43.6049 74.98 43.1206 76.7695 43.1206C77.3142 43.1206 77.82 43.1466 78.2955 43.1941L78.2998 43.1985C78.784 43.246 79.2466 43.3195 79.6874 43.4147C79.9987 42.5846 80.1499 41.6898 80.1197 40.7647C79.6139 40.6611 79.0995 40.5789 78.5808 40.5228C77.9755 40.4578 77.3705 40.4233 76.7695 40.4233C74.6471 40.4233 72.3042 40.9809 70.0304 41.8411C68.0938 42.5717 66.2004 43.5228 64.5231 44.5386L64.1212 42.3988C64.0304 41.88 63.7537 41.4392 63.3733 41.1236C62.9886 40.8037 62.5001 40.6135 61.9901 40.6135H56.9151C56.3186 40.6135 55.7739 40.8599 55.3806 41.2532C54.9871 41.6423 54.7452 42.1869 54.7452 42.7879V51.0357C54.7452 51.1135 54.7538 51.1913 54.7667 51.2691Z" fill="#00008F"/>
<path d="M51.0577 51.5621C51.1138 51.6702 51.1529 51.7869 51.1744 51.8992L48.8229 52.3142C48.075 50.9611 47.1457 49.7293 46.0822 48.6313C43.4108 45.8733 39.866 43.9756 36.0621 43.2581C32.2667 42.5405 28.2076 43.0031 24.49 44.9568C22.9599 45.7652 21.4858 46.8243 20.1068 48.1557C18.1875 50.0189 16.7912 52.1629 15.9051 54.4324C15.0319 56.6672 14.6601 59.0404 14.7811 61.3919C14.2278 62.6153 14.0247 64.0115 14.2754 65.4337L12.7754 56.9266C12.9959 55.7983 13.3157 54.683 13.7394 53.5937C14.7422 51.0174 16.3244 48.5923 18.49 46.4914C20.0334 44.9957 21.6889 43.807 23.4094 42.8992C27.6154 40.686 32.2018 40.1629 36.49 40.9714C40.7653 41.7797 44.7421 43.9108 47.7465 47.0102C49.052 48.3546 50.1759 49.8848 51.0577 51.5621ZM21.0534 57.2119L23.552 56.7711C23.9929 55.8114 24.5981 54.9425 25.3243 54.1859C26.6861 52.7681 28.4712 51.7392 30.4123 51.2507C32.3488 50.7666 34.4368 50.8142 36.4079 51.5404C37.6701 52.0029 38.8848 52.7464 39.9871 53.8055L39.9958 53.8099L40.0477 53.8618L42.5679 53.4164C42.5333 53.2133 42.4425 53.0145 42.2911 52.8458C42.2004 52.7464 42.088 52.6254 41.954 52.4827C41.8373 52.3617 41.7163 52.245 41.5951 52.1283C40.2466 50.8359 38.7551 49.9281 37.2076 49.3575C34.7782 48.4626 32.2191 48.3978 29.8503 48.9944C27.49 49.591 25.3114 50.8401 23.6515 52.5735C22.5449 53.7234 21.6673 55.0852 21.1054 56.6111C21.0319 56.8099 21.0188 57.0174 21.0534 57.2119ZM54.9481 51.2336L57.2565 50.8272V43.1283H61.7047L62.4178 46.9064C62.4438 47.0837 62.5086 47.261 62.6167 47.4208C62.9842 47.9482 63.7104 48.0778 64.2378 47.7105C66.1311 46.3964 68.4957 45.0951 70.9122 44.1831C72.9222 43.4266 74.9583 42.9382 76.7695 42.9382C77.3184 42.9382 77.8329 42.964 78.3169 43.0117L78.3214 43.0159C78.8141 43.0679 79.2939 43.1413 79.7478 43.245C79.9986 42.5188 80.1282 41.7451 80.124 40.9497C79.6138 40.8416 79.0908 40.7595 78.5591 40.7033C77.9625 40.6385 77.3659 40.6083 76.7695 40.6083C74.6686 40.6083 72.3516 41.1572 70.0908 42.0088C68.0851 42.7696 66.1138 43.7681 64.3934 44.8315L63.9395 42.4324C63.8573 41.9568 63.6066 41.5506 63.2565 41.261C62.9063 40.967 62.4569 40.7985 61.9899 40.7985H56.915C56.3703 40.7985 55.8689 41.0189 55.5101 41.3776C55.1514 41.7407 54.9266 42.2378 54.9266 42.7869V51.0347C54.9266 51.1038 54.9352 51.1686 54.9481 51.2336Z" fill="#00008D"/>
<path d="M50.8984 51.6468C50.9459 51.7419 50.9805 51.8371 50.9935 51.9365L49.0136 52.2823C48.2528 50.8947 47.3062 49.6281 46.2125 48.5042C43.5152 45.7203 39.9359 43.8054 36.093 43.0792C32.2629 42.3572 28.1607 42.8197 24.4086 44.7995C22.861 45.6122 21.3697 46.68 19.9821 48.0287C18.0455 49.9091 16.6275 52.0748 15.7371 54.3659C14.8163 56.7304 14.4446 59.2375 14.6175 61.7146L14.6261 61.7664C14.1939 62.8989 14.0512 64.1569 14.276 65.4364L12.8711 57.448C13.0829 56.1641 13.4287 54.8976 13.9129 53.6612C14.9071 51.1064 16.4719 48.7073 18.6161 46.6238C20.1464 45.1411 21.789 43.961 23.4922 43.0661C27.6636 40.8702 32.2068 40.3515 36.4561 41.1556C40.6923 41.9553 44.6391 44.0691 47.6174 47.1381C48.91 48.474 50.0208 49.9869 50.8984 51.6468ZM21.2313 57.1843L23.3364 56.8126C23.7904 55.7881 24.4259 54.863 25.1953 54.0589C26.5785 52.6194 28.3942 51.5734 30.3697 51.0762C32.3408 50.5833 34.4633 50.631 36.469 51.3701C37.7529 51.8457 38.9935 52.6021 40.1175 53.6785L40.1217 53.6829C40.1694 53.7304 40.2211 53.778 40.2688 53.8255L42.3913 53.4537C42.3566 53.2808 42.2832 53.1122 42.1578 52.9696C42.0626 52.8658 41.9545 52.7491 41.8249 52.6152C41.7082 52.494 41.5914 52.3773 41.4704 52.2606C40.139 50.9897 38.6693 50.0906 37.1477 49.5286C34.7529 48.6468 32.2285 48.5863 29.8941 49.1742C27.5642 49.7621 25.42 50.9941 23.7818 52.7015C22.6967 53.8341 21.8322 55.1786 21.2789 56.6743C21.2184 56.8428 21.2053 57.0201 21.2313 57.1843ZM55.1261 51.2059L57.0755 50.8643V42.9451H61.8566L62.6001 46.8833C62.6216 47.0344 62.6735 47.1858 62.7687 47.3198C63.0755 47.7651 63.6894 47.873 64.1346 47.5662C66.0367 46.2434 68.4141 44.9335 70.8479 44.0171C72.8754 43.2521 74.9372 42.7549 76.77 42.7549C77.3191 42.7549 77.8422 42.7809 78.3349 42.8326L78.3392 42.8371C78.8494 42.889 79.3379 42.9667 79.8047 43.0705C79.9991 42.4566 80.1116 41.8039 80.1245 41.1383C79.6058 41.0302 79.0785 40.9437 78.5424 40.8875C77.9545 40.8227 77.3622 40.7925 76.77 40.7925C74.6909 40.7925 72.3955 41.3371 70.1563 42.1843C68.0727 42.9711 66.0324 44.0215 64.2644 45.1282L63.7586 42.4653C63.6807 42.033 63.4559 41.6656 63.1405 41.402C62.8249 41.1383 62.4141 40.9825 61.9906 40.9825H56.9157C56.4185 40.9825 55.9691 41.1858 55.6404 41.51C55.3163 41.8385 55.1131 42.288 55.1131 42.7895V51.0374C55.1131 51.0935 55.1175 51.1497 55.1261 51.2059Z" fill="#00008C"/>
<path d="M50.7343 51.731C50.7775 51.8045 50.8035 51.8866 50.8164 51.9645L49.204 52.2497C48.4259 50.8233 47.4619 49.5265 46.3467 48.3766C43.619 45.5668 40.0095 43.6301 36.1277 42.8997C32.2546 42.1691 28.1176 42.636 24.3222 44.6331C22.7617 45.4545 21.2574 46.5351 19.8569 47.8967C17.8987 49.7945 16.4678 51.9818 15.5644 54.2987C14.635 56.6892 14.2589 59.2267 14.4361 61.7382L14.5053 62.1142C14.1681 63.1518 14.0773 64.2843 14.2762 65.4342L12.9707 58.012C13.1696 56.5596 13.537 55.1201 14.0816 53.7238C15.0672 51.195 16.6192 48.8176 18.7459 46.7555C20.2632 45.2816 21.8885 44.1144 23.5788 43.2239C27.7112 41.0496 32.2113 40.5394 36.4216 41.3305C40.6234 42.1258 44.5354 44.218 47.4879 47.2656C48.7674 48.5841 49.8698 50.084 50.7343 51.731ZM21.413 57.1475L23.1205 56.8492C23.5873 55.7599 24.2531 54.7785 25.0614 53.9314C26.4706 52.4659 28.3165 51.4025 30.3266 50.8967C32.3281 50.3954 34.4894 50.4429 36.5341 51.1993C37.8396 51.6791 39.1018 52.4486 40.243 53.5423L40.2472 53.5465C40.3294 53.6244 40.4115 53.7065 40.4894 53.7844L42.2099 53.4817C42.1839 53.339 42.1233 53.2052 42.0197 53.0884C41.9289 52.9846 41.8164 52.868 41.691 52.7382C41.5787 52.6215 41.4619 52.5047 41.3452 52.3924C40.0355 51.1345 38.5873 50.2527 37.083 49.6994C34.7271 48.8305 32.2415 48.77 29.9375 49.3492C27.6422 49.9284 25.5282 51.1431 23.916 52.829C22.8438 53.94 21.9922 55.2628 21.4476 56.7367C21.4001 56.8708 21.3872 57.0135 21.413 57.1475ZM55.3078 51.1735L56.8943 50.8925V42.7872C56.8943 42.7785 56.8943 42.7743 56.8985 42.77C56.9028 42.7656 56.9116 42.7614 56.9158 42.7614H61.9908C61.9994 42.7614 62.0037 42.7612 62.0081 42.7656L62.0123 42.77L62.7818 46.8594C62.7991 46.9803 62.8424 47.1013 62.9201 47.2138C63.1708 47.5725 63.668 47.6633 64.0311 47.4125C65.9418 46.0812 68.3366 44.7671 70.7832 43.842C72.8322 43.0682 74.9158 42.571 76.7702 42.571C77.3235 42.571 77.8508 42.597 78.3524 42.6489L78.3566 42.6531C78.8797 42.7051 79.3769 42.7872 79.8567 42.8953C80.0037 42.3895 80.0944 41.8621 80.116 41.3219C79.5973 41.2094 79.0657 41.123 78.5209 41.0669C77.9418 41.0063 77.3581 40.9717 76.7702 40.9717C74.7126 40.9717 72.4388 41.5121 70.2213 42.3506C68.0598 43.1676 65.9418 44.27 64.1348 45.4241L63.5814 42.4933C63.5124 42.1087 63.3091 41.7758 63.0239 41.5423C62.7385 41.3046 62.3754 41.1619 61.9908 41.1619H56.9158C56.4706 41.1619 56.0642 41.3434 55.7704 41.6375C55.4763 41.9314 55.2948 42.3377 55.2948 42.7872V51.035C55.2948 51.0827 55.2992 51.1258 55.3078 51.1735Z" fill="#00008A"/>
<path d="M50.5736 51.8167C50.604 51.8728 50.6255 51.9334 50.6342 51.994L49.3935 52.2144C48.6025 50.7533 47.6169 49.4261 46.4757 48.246C43.7222 45.4103 40.0781 43.4563 36.1617 42.7172C32.2495 41.9824 28.0695 42.4536 24.2352 44.4723C22.6616 45.3022 21.1444 46.3915 19.7264 47.7662C17.7509 49.6811 16.3072 51.8901 15.3951 54.233C14.4527 56.6537 14.0723 59.2216 14.2539 61.759L14.3879 62.5112C14.1501 63.4363 14.1026 64.4304 14.2755 65.4333L13.0781 58.6336C13.2467 56.991 13.6401 55.3613 14.2496 53.7922C15.2265 51.2849 16.7655 48.929 18.8706 46.8844C20.3749 45.4233 21.9873 44.2648 23.6646 43.383C27.7539 41.2302 32.2193 40.7244 36.3864 41.5112C40.5535 42.2936 44.4267 44.3729 47.3576 47.3902C48.6241 48.6999 49.7135 50.1827 50.5736 51.8167ZM21.5939 57.1164L22.908 56.8829C23.3836 55.7331 24.0796 54.6955 24.9312 53.8051C26.3619 52.3138 28.2379 51.2331 30.2827 50.7187C32.3188 50.2087 34.5189 50.2604 36.5939 51.0256C37.9253 51.5141 39.2092 52.2965 40.3677 53.4118C40.4714 53.5112 40.5751 53.6149 40.6745 53.7143L40.7049 53.7447L42.0277 53.5112C42.0104 53.4031 41.9627 53.2993 41.8806 53.2085C41.7898 53.1048 41.6819 52.9881 41.5607 52.8627C41.4484 52.7504 41.3359 52.6336 41.2192 52.5213C39.9268 51.2849 38.5002 50.416 37.0175 49.8714C34.7005 49.0155 32.2495 48.9549 29.9844 49.5256C27.7193 50.0962 25.6357 51.2936 24.045 52.9535C22.9945 54.0516 22.1558 55.3482 21.6198 56.7964C21.581 56.9045 21.5723 57.0126 21.5939 57.1164ZM55.4887 51.138L56.7077 50.9262V42.7865C56.7077 42.7259 56.7336 42.674 56.7725 42.6395C56.8071 42.6005 56.859 42.5789 56.9152 42.5789H61.9901C62.042 42.5789 62.0895 42.5962 62.1241 42.6222C62.1588 42.6524 62.1803 42.6913 62.189 42.7345L62.9627 46.8325C62.9757 46.9277 63.0102 47.0227 63.0665 47.1048C63.261 47.3858 63.6456 47.455 63.9224 47.2604C65.8504 45.9247 68.2538 44.602 70.7178 43.6727C72.7883 42.8901 74.8892 42.3887 76.7695 42.3887C77.3273 42.3887 77.8633 42.4147 78.3733 42.4709C78.9051 42.527 79.4108 42.6091 79.8993 42.7172H79.908C80.0074 42.3239 80.0765 41.9176 80.1067 41.5069C79.5837 41.3902 79.0477 41.3037 78.5031 41.2475C77.9325 41.1869 77.3532 41.1567 76.7695 41.1567C74.7379 41.1567 72.4858 41.6927 70.2855 42.5228C68.0463 43.37 65.8504 44.5241 64.0045 45.7259L63.3993 42.5228C63.3388 42.1812 63.1573 41.8874 62.9109 41.6798C62.6557 41.4679 62.3317 41.3469 61.9901 41.3469H56.9152C56.5219 41.3469 56.1588 41.5069 55.8993 41.7662C55.6399 42.0256 55.4757 42.3887 55.4757 42.7865V51.0343C55.4757 51.0689 55.4801 51.1034 55.4887 51.138Z" fill="#000088"/>
<path d="M50.4134 51.8974C50.435 51.9405 50.4481 51.9838 50.4565 52.0271L49.5834 52.1784C48.7795 50.6827 47.7721 49.321 46.6051 48.1193C43.8255 45.2532 40.1468 43.2821 36.1958 42.5386C32.2448 41.7907 28.0214 42.2705 24.1527 44.3108C22.5619 45.1451 21.0273 46.2475 19.6009 47.6308C17.6036 49.5673 16.1469 51.7979 15.2262 54.1668C14.2708 56.6135 13.8904 59.2114 14.072 61.7835L14.2838 62.9809C14.1412 63.7677 14.1282 64.5933 14.2752 65.432L13.2031 59.3326C13.3242 57.4738 13.7305 55.6279 14.4221 53.8556C15.3861 51.3743 16.9121 49.04 18.9956 47.0127C20.4869 45.5688 22.0864 44.4189 23.7463 43.5458C27.801 41.4103 32.2232 40.9089 36.3558 41.687C40.484 42.4651 44.3227 44.527 47.2232 47.5183C48.481 48.8109 49.5619 50.285 50.4134 51.8974ZM21.7708 57.0847L22.6959 56.9205C23.18 55.7014 23.9019 54.6121 24.7968 53.6783C26.2536 52.1611 28.1641 51.0632 30.2348 50.5401C32.3096 50.0214 34.5445 50.0731 36.6583 50.8512C38.0113 51.3484 39.3125 52.1438 40.4926 53.2764L40.497 53.2806C40.6007 53.3801 40.7045 53.4837 40.804 53.5876C40.8428 53.6264 40.8817 53.6653 40.9163 53.7085L41.85 53.5443C41.8371 53.4666 41.8025 53.3931 41.7463 53.3325C41.6512 53.2245 41.5431 53.1077 41.4263 52.991C41.3183 52.8743 41.2059 52.7619 41.0936 52.6539C39.8183 51.4349 38.4134 50.5789 36.9566 50.0385C34.6699 49.2 32.2579 49.1394 30.0273 49.7014C27.7968 50.2633 25.7434 51.4434 24.1743 53.0775C23.1411 54.1582 22.3155 55.4333 21.7924 56.8599C21.7622 56.9334 21.7578 57.0112 21.7708 57.0847ZM55.6655 51.1063L56.5258 50.9549V42.785C56.5258 42.6769 56.569 42.5774 56.6425 42.5084C56.7116 42.4349 56.8112 42.3916 56.9148 42.3916H61.9898C62.0848 42.3916 62.1713 42.4261 62.2404 42.4824C62.3054 42.5342 62.3529 42.6121 62.3702 42.7028L63.1439 46.8094C63.1525 46.8787 63.1785 46.9435 63.2174 46.9996C63.3558 47.1985 63.6237 47.246 63.8183 47.1077C65.7548 45.7634 68.1756 44.4362 70.6526 43.4983C72.7405 42.7115 74.8672 42.2014 76.7692 42.2014C77.3312 42.2014 77.8716 42.2316 78.3903 42.2878H78.3947C78.9263 42.344 79.4407 42.4261 79.9379 42.5386H79.9508C80.0156 42.2619 80.0588 41.9766 80.0892 41.687C79.5703 41.5703 79.0301 41.4839 78.4854 41.4276C77.9235 41.3672 77.3485 41.3368 76.7692 41.3368C74.7591 41.3368 72.5285 41.8685 70.3499 42.6899C68.0286 43.5673 65.7592 44.7778 63.8745 46.0271L63.2218 42.5559C63.1699 42.2576 63.0099 42.0026 62.7939 41.821C62.569 41.6351 62.2881 41.527 61.9898 41.527H56.9148C56.569 41.527 56.2577 41.6654 56.0286 41.8945C55.7996 42.1236 55.6613 42.4349 55.6613 42.785V51.0328C55.6613 51.0588 55.6613 51.0803 55.6655 51.1063Z" fill="#000087"/>
<path d="M50.2487 51.9873C50.2616 52.0133 50.2702 52.0348 50.2746 52.0608L49.7731 52.1516C48.9561 50.617 47.9274 49.225 46.7342 47.9974C43.9331 45.1055 40.2199 43.1127 36.2256 42.3605C32.24 41.6084 27.9736 42.0925 24.0658 44.1501C22.4621 44.9974 20.9145 46.1083 19.4707 47.5045C17.4562 49.4585 15.9865 51.715 15.0528 54.1054C14.0888 56.5824 13.7041 59.2107 13.89 61.8085L14.2012 63.5723C14.145 64.1775 14.1666 64.8043 14.2747 65.4353L13.3496 60.1702C13.3928 58.0564 13.8035 55.9426 14.5902 53.924C15.5456 51.4686 17.0585 49.1516 19.1247 47.1459C20.6031 45.715 22.1853 44.578 23.8323 43.7093C27.8482 41.5953 32.2271 41.0983 36.3207 41.8721C40.4101 42.6415 44.2185 44.6819 47.0931 47.6472C48.338 48.931 49.4057 50.388 50.2487 51.9873ZM21.9518 57.0536L22.4836 56.9628C22.9763 55.6789 23.7285 54.529 24.6666 53.5522C26.145 52.0133 28.0859 50.898 30.191 50.3663C32.2963 49.8389 34.57 49.8907 36.7228 50.6861C38.0973 51.1919 39.4201 52.0002 40.6219 53.1501C40.73 53.2539 40.8336 53.3576 40.9375 53.4657C41.0023 53.5305 41.0671 53.5997 41.1319 53.6732L41.6679 53.578C41.6593 53.5349 41.642 53.4916 41.6075 53.457C41.5123 53.3447 41.4043 53.2322 41.2962 53.1199C41.1881 53.0074 41.08 52.8993 40.9677 52.7912C39.7141 51.5896 38.3308 50.7424 36.8913 50.2149C34.6434 49.385 32.2704 49.3289 30.0701 49.8822C27.8741 50.4355 25.8509 51.5983 24.3078 53.2063C23.2877 54.2698 22.4794 55.5233 21.9605 56.924C21.9476 56.9671 21.9432 57.0146 21.9518 57.0536ZM55.8465 51.0796L56.3437 50.9888V42.7885C56.3437 42.6285 56.4085 42.4859 56.5123 42.3821C56.616 42.2784 56.7587 42.2136 56.9143 42.2136H61.9892C62.1275 42.2136 62.2573 42.2611 62.3567 42.3475C62.4518 42.4254 62.5252 42.5421 62.547 42.6761L63.3251 46.7912C63.3293 46.8303 63.3422 46.8649 63.3682 46.8995C63.4461 47.0118 63.6016 47.042 63.714 46.9643C65.6593 45.6112 68.0973 44.2755 70.5873 43.3331C72.6967 42.5379 74.8451 42.0234 76.7687 42.0234C77.335 42.0234 77.8841 42.0536 78.4114 42.1098C78.9517 42.1659 79.4748 42.2525 79.9762 42.3648H79.9892C80.0194 42.2005 80.0454 42.0363 80.067 41.8721C79.5483 41.7597 79.0123 41.6688 78.4634 41.6126C77.9099 41.5522 77.3479 41.5219 76.7687 41.5219C74.7803 41.5219 72.5757 42.0494 70.4144 42.8663C68.0108 43.7741 65.6635 45.0363 63.7486 46.3331L63.0397 42.5896C62.9964 42.3346 62.8624 42.1184 62.6766 41.9628C62.4864 41.8072 62.2443 41.7121 61.9892 41.7121H56.9143C56.6204 41.7121 56.3523 41.8332 56.1579 42.0276C55.9633 42.2221 55.8423 42.4902 55.8423 42.7885V51.0363C55.8423 51.0492 55.8423 51.0623 55.8465 51.0796Z" fill="#000085"/>
<path d="M13.6458 61.8451L14.277 65.433C13.6156 61.6722 16.1271 58.0842 19.8922 57.4186L22.2006 57.0122C24.7295 50.1478 34.4686 46.9056 40.7971 52.9705C41.0175 53.1824 41.225 53.4028 41.4238 53.6232L50.0305 52.106C44.5665 41.7226 29.4196 37.5167 19.2999 47.3293C15.1372 51.3667 13.2654 56.6665 13.6458 61.8451ZM56.0954 51.0382L74.4065 47.8091C77.3762 47.286 79.5678 44.9388 80.0348 42.1203C79.0103 41.8957 77.9208 41.7745 76.7709 41.7745C72.5087 41.7745 67.1961 44.2428 63.5737 46.7587L62.7956 42.6348C62.7264 42.2415 62.3762 41.9647 61.9915 41.9647H56.9166C56.4627 41.9647 56.0954 42.3365 56.0954 42.7904V51.0382Z" fill="#000085"/>
<path d="M21.9759 27.1464C22.8966 26.6535 23.8303 26.2904 24.6388 26.1479C26.9428 25.7415 29.2683 26.4029 31.1315 27.7992C32.9599 29.1737 34.3477 31.2617 34.8189 33.7472C35.2987 36.2847 34.7323 38.766 33.3361 40.7198C31.9787 42.6132 29.8476 44.0138 27.1416 44.4893L23.0825 45.2068L23.7482 48.7084C23.7785 48.8855 23.692 49.0627 23.5235 49.1492L20.5624 50.567C20.5278 50.5887 20.4845 50.606 20.437 50.6103C20.2122 50.6535 19.996 50.5066 19.9529 50.286L15.7771 28.2184C15.7338 27.998 15.8808 27.7861 16.1099 27.7472L19.2525 27.1897C19.4773 27.1507 19.6935 27.302 19.7323 27.5224L19.9225 28.5081C20.558 27.998 21.2626 27.5311 21.9759 27.1464ZM53.6789 23.8006C55.1185 21.8338 57.323 20.3812 59.8951 19.9231C62.4585 19.4734 65.0478 20.0829 67.1098 21.436C69.1457 22.7675 70.6674 24.8251 71.1343 27.302C71.6097 29.8049 70.9483 32.2602 69.5392 34.2098C68.1083 36.1895 65.8994 37.6463 63.3361 38.1002C60.7596 38.5541 58.1573 37.9446 56.091 36.5872C54.0551 35.2429 52.5291 33.1724 52.0579 30.6694C51.5825 28.1925 52.2525 25.7458 53.6789 23.8006ZM64.8447 24.6478C63.6473 23.8741 62.1343 23.5239 60.6257 23.792C59.1214 24.0599 57.8202 24.9028 56.9772 26.044C56.1472 27.1593 55.7452 28.56 56.0133 29.9691C56.2856 31.4086 57.1674 32.5974 58.3562 33.3626C59.5666 34.1536 61.0969 34.5036 62.6055 34.2357C64.114 33.9676 65.4022 33.1247 66.2409 31.9792C67.0665 30.8596 67.4514 29.4418 67.1746 28.0023C66.9065 26.5887 66.0291 25.4086 64.8447 24.6478ZM40.2179 29.8395L42.388 41.2948C42.4269 41.5108 42.2799 41.7227 42.0551 41.7616L38.9082 42.3193C38.6876 42.3582 38.4716 42.2112 38.4283 41.9907L35.1733 24.7947C35.13 24.5743 35.2814 24.3668 35.506 24.328L38.022 23.8783C38.2122 23.8437 38.411 23.9562 38.4802 24.1378L39.1891 25.9533C39.924 25.1838 40.7625 24.4663 41.6443 23.8827C42.5998 23.2602 43.6113 22.7977 44.6055 22.6248C45.6732 22.4346 46.6027 22.3913 47.3893 22.4217C48.4917 22.4648 49.2914 22.668 49.7712 22.8365C49.9181 22.8756 50.0349 22.9965 50.0608 23.1521L50.6443 26.2256C50.6747 26.3898 50.5968 26.5672 50.437 26.6493L48.0162 27.9547C47.9859 27.972 47.9513 27.9894 47.9168 28.0023C47.6962 28.0671 47.4672 27.9461 47.398 27.7343L46.9139 26.2516C46.7885 26.2214 46.6027 26.191 46.3648 26.1867C46.0752 26.1781 45.7207 26.1996 45.2928 26.2775C44.2683 26.4591 43.3865 26.8914 42.5651 27.5095C41.7568 28.119 41.0047 28.9187 40.2179 29.8395ZM28.6589 30.9763C27.5825 30.2155 26.2079 29.8697 24.7467 30.1247C23.9341 30.2847 23.2079 30.5699 22.5206 30.9676C21.8807 31.348 21.2713 31.8279 20.6574 32.3943L22.3519 41.3379L26.7222 40.5642C28.1834 40.3134 29.3505 39.5182 30.0811 38.4331C30.8332 37.3307 31.1358 35.9129 30.8592 34.4432C30.5825 32.9864 29.7741 31.7588 28.6589 30.9763Z" fill="white"/>
</g>
<defs>
<clipPath id="clip0_430_2037">
<rect width="195.918" height="80" fill="white" transform="translate(0.0410156)"/>
</clipPath>
</defs>
</svg>
