<svg width="20" height="20" viewBox="0 0 20 20" fill="none" xmlns="http://www.w3.org/2000/svg">
<path fill-rule="evenodd" clip-rule="evenodd" d="M10.0003 1.04163C5.05277 1.04163 1.04199 5.05241 1.04199 9.99996C1.04199 14.9475 5.05277 18.9583 10.0003 18.9583C14.9479 18.9583 18.9587 14.9475 18.9587 9.99996C18.9587 5.05241 14.9479 1.04163 10.0003 1.04163ZM2.29199 9.99996C2.29199 5.74277 5.74313 2.29163 10.0003 2.29163C11.9041 2.29163 13.6467 2.98177 14.9915 4.12551C14.9859 4.13067 14.9805 4.13595 14.9751 4.14135L4.14173 14.9745C4.1363 14.98 4.13098 14.9855 4.12579 14.991C2.9821 13.6462 2.29199 11.9037 2.29199 9.99996ZM5.00907 15.8743C6.35392 17.0181 8.09652 17.7083 10.0003 17.7083C14.2575 17.7083 17.7087 14.2571 17.7087 9.99996C17.7087 8.09621 17.0185 6.35364 15.8747 5.00881C15.8696 5.01436 15.8643 5.01984 15.8589 5.02524L5.02561 15.8584C5.02017 15.8638 5.01466 15.8691 5.00907 15.8743Z" fill="#FFB159"/>
</svg>
