<svg width="16" height="16" viewBox="0 0 16 16" fill="none" xmlns="http://www.w3.org/2000/svg">
<g clip-path="url(#clip0_2001_1660)">
<path d="M6.68656 5.9797C6.4913 5.78444 6.17471 5.78444 5.97945 5.9797C5.78419 6.17496 5.78419 6.49154 5.97945 6.68678L7.29256 7.99992L5.97947 9.31305C5.78421 9.50832 5.78421 9.82485 5.97947 10.0201C6.17473 10.2154 6.49131 10.2154 6.68656 10.0201L7.99969 8.70705L9.31276 10.0201C9.50803 10.2154 9.82463 10.2154 10.0199 10.0201C10.2152 9.82485 10.2152 9.50825 10.0199 9.31305L8.70676 7.99992L10.0199 6.68678C10.2152 6.49156 10.2152 6.17497 10.0199 5.97971C9.82463 5.78445 9.50803 5.78445 9.31276 5.97971L7.99969 7.29285L6.68656 5.9797Z" fill="#A4ABBE"/>
<path fill-rule="evenodd" clip-rule="evenodd" d="M8.03794 0.833252H7.96141C6.4225 0.833245 5.21647 0.833239 4.27548 0.959752C3.31232 1.08925 2.55231 1.35947 1.95577 1.95601C1.35923 2.55255 1.089 3.31257 0.959508 4.27573C0.832995 5.21671 0.833001 6.42273 0.833008 7.96165V8.03818C0.833001 9.57712 0.832995 10.7831 0.959508 11.7241C1.089 12.6873 1.35923 13.4473 1.95577 14.0439C2.55231 14.6404 3.31232 14.9106 4.27548 15.0401C5.21647 15.1666 6.42249 15.1666 7.96141 15.1666H8.03794C9.57687 15.1666 10.7829 15.1666 11.7239 15.0401C12.687 14.9106 13.4471 14.6404 14.0436 14.0439C14.6401 13.4473 14.9103 12.6873 15.0399 11.7241C15.1663 10.7831 15.1663 9.57712 15.1663 8.03818V7.96165C15.1663 6.42274 15.1663 5.21671 15.0399 4.27573C14.9103 3.31257 14.6401 2.55255 14.0436 1.95601C13.4471 1.35947 12.687 1.08925 11.7239 0.959752C10.7829 0.833239 9.57687 0.833245 8.03794 0.833252ZM2.66287 2.66312C3.04264 2.28335 3.55645 2.06542 4.40873 1.95083C5.27538 1.83431 6.41419 1.83325 7.99967 1.83325C9.58514 1.83325 10.7239 1.83431 11.5906 1.95083C12.4429 2.06542 12.9567 2.28335 13.3365 2.66312C13.7163 3.04289 13.9342 3.5567 14.0487 4.40897C14.1653 5.27563 14.1663 6.41443 14.1663 7.99992C14.1663 9.58538 14.1653 10.7242 14.0487 11.5909C13.9342 12.4431 13.7163 12.9569 13.3365 13.3367C12.9567 13.7165 12.4429 13.9345 11.5906 14.049C10.7239 14.1655 9.58514 14.1666 7.99967 14.1666C6.41419 14.1666 5.27538 14.1655 4.40873 14.049C3.55645 13.9345 3.04264 13.7165 2.66287 13.3367C2.2831 12.9569 2.06517 12.4431 1.95059 11.5909C1.83407 10.7242 1.83301 9.58538 1.83301 7.99992C1.83301 6.41443 1.83407 5.27563 1.95059 4.40897C2.06517 3.5567 2.2831 3.04289 2.66287 2.66312Z" fill="#A4ABBE"/>
</g>
<defs>
<clipPath id="clip0_2001_1660">
<rect width="16" height="16" fill="white"/>
</clipPath>
</defs>
</svg>
