<svg width="16" height="17" viewBox="0 0 16 17" fill="none" xmlns="http://www.w3.org/2000/svg">
<g opacity="0.3">
<path d="M2 5.16667C2 3.69391 3.19391 2.5 4.66667 2.5H11.3333C12.8061 2.5 14 3.69391 14 5.16667V11.8333C14 13.3061 12.8061 14.5 11.3333 14.5H4.66667C3.19391 14.5 2 13.3061 2 11.8333V5.16667Z" stroke="black" stroke-width="1.2"/>
<path d="M6.00033 7.83329C6.73671 7.83329 7.33366 7.23634 7.33366 6.49996C7.33366 5.76358 6.73671 5.16663 6.00033 5.16663C5.26395 5.16663 4.66699 5.76358 4.66699 6.49996C4.66699 7.23634 5.26395 7.83329 6.00033 7.83329Z" stroke="black" stroke-width="1.2" stroke-linecap="round" stroke-linejoin="round"/>
<path d="M2.66699 13.8334L4.58287 11.4385C5.00764 10.9075 5.76789 10.7895 6.33366 11.1667C6.89943 11.5439 7.65967 11.4258 8.08445 10.8949L9.15057 9.56222C9.6171 8.97905 10.4716 8.89275 11.0453 9.37085L14.0003 11.8334" stroke="black" stroke-width="1.2"/>
</g>
</svg>
