<svg width="20" height="20" viewBox="0 0 20 20" fill="none" xmlns="http://www.w3.org/2000/svg">
<g opacity="0.4">
<path fill-rule="evenodd" clip-rule="evenodd" d="M3.29589 1.875C3.30828 1.87501 3.32071 1.87501 3.33318 1.87501L16.7038 1.875C17.0645 1.87496 17.3952 1.87493 17.6642 1.91109C17.9604 1.95092 18.2735 2.04463 18.531 2.30214C18.7886 2.55966 18.8823 2.87277 18.9221 3.169C18.9583 3.43801 18.9583 3.76871 18.9582 4.12939V4.20396C18.9583 4.56464 18.9583 4.89534 18.9221 5.16434C18.8823 5.46058 18.7886 5.77369 18.531 6.0312C18.2863 6.27601 17.9912 6.37278 17.7082 6.41595V10.8803C17.7082 12.4118 17.7082 13.6248 17.5806 14.5742C17.4492 15.5513 17.1724 16.342 16.5488 16.9657C15.9252 17.5893 15.1344 17.866 14.1573 17.9974C13.208 18.125 11.995 18.125 10.4635 18.125H9.53617C8.0047 18.125 6.79167 18.125 5.84232 17.9974C4.86531 17.866 4.07452 17.5893 3.45088 16.9657C2.82725 16.342 2.55048 15.5513 2.41912 14.5742C2.29149 13.6248 2.2915 12.4118 2.29151 10.8803V6.41595C2.00849 6.37278 1.71346 6.27601 1.46865 6.0312C1.21113 5.77369 1.11742 5.46058 1.0776 5.16434C1.04143 4.89534 1.04147 4.56464 1.04151 4.20397C1.04152 4.19157 1.04152 4.17914 1.04152 4.16668C1.04152 4.15421 1.04152 4.14178 1.04151 4.12939C1.04147 3.7687 1.04143 3.43801 1.0776 3.169C1.11742 2.87277 1.21113 2.55966 1.46865 2.30214C1.72617 2.04463 2.03927 1.95092 2.33551 1.91109C2.60451 1.87493 2.93521 1.87496 3.29589 1.875ZM3.54151 6.45834V10.8333C3.54151 12.4223 3.54284 13.5513 3.65798 14.4077C3.7707 15.246 3.98209 15.7291 4.33476 16.0818C4.68744 16.4344 5.17048 16.6458 6.00889 16.7585C6.86527 16.8737 7.99417 16.875 9.58317 16.875H10.4165C12.0055 16.875 13.1344 16.8737 13.9908 16.7585C14.8292 16.6458 15.3123 16.4344 15.6649 16.0818C16.0176 15.7291 16.229 15.246 16.3417 14.4077C16.4568 13.5513 16.4582 12.4223 16.4582 10.8333V6.45834H10.6248V11.7046L12.0353 10.1374C12.2662 9.88092 12.6613 9.86009 12.9179 10.091C13.1745 10.3219 13.1953 10.7171 12.9644 10.9737L10.4644 13.7514C10.3458 13.8832 10.177 13.9583 9.99984 13.9583C9.82267 13.9583 9.65384 13.8832 9.53526 13.7514L7.03529 10.9737C6.80437 10.7171 6.82517 10.3219 7.08174 10.091C7.33831 9.86009 7.73349 9.88092 7.96441 10.1374L9.37484 11.7046V6.45834H3.54151ZM16.6665 5.20834C17.077 5.20834 17.322 5.20701 17.4976 5.1834C17.5781 5.17259 17.6184 5.15984 17.6365 5.15238C17.6408 5.15064 17.6435 5.1493 17.6451 5.14846L17.6472 5.14732L17.6483 5.14529C17.6492 5.14367 17.6505 5.14091 17.6522 5.1367C17.6597 5.11855 17.6724 5.07825 17.6833 4.99779C17.7068 4.82219 17.7082 4.57718 17.7082 4.16668C17.7082 3.75617 17.7068 3.51116 17.6833 3.33556C17.6724 3.25509 17.6597 3.21479 17.6522 3.19664C17.6505 3.19244 17.6492 3.18968 17.6483 3.18807L17.6472 3.18603L17.6451 3.18489C17.6435 3.18405 17.6408 3.1827 17.6365 3.18098C17.6184 3.17351 17.5781 3.16076 17.4976 3.14994C17.322 3.12634 17.077 3.12501 16.6665 3.12501H3.33318C2.92267 3.12501 2.67766 3.12634 2.50207 3.14994C2.4216 3.16076 2.3813 3.17351 2.36315 3.18098C2.35895 3.1827 2.35618 3.18405 2.35457 3.18489L2.35254 3.18604L2.3514 3.18807C2.35056 3.18968 2.34921 3.19244 2.34748 3.19664C2.34001 3.21479 2.32727 3.25509 2.31645 3.33556C2.29284 3.51116 2.29151 3.75617 2.29151 4.16668C2.29151 4.57718 2.29284 4.82219 2.31645 4.99779C2.32727 5.07825 2.34001 5.11855 2.34748 5.1367C2.34921 5.14091 2.35056 5.14367 2.3514 5.14529L2.35254 5.14731L2.35457 5.14846C2.35618 5.1493 2.35895 5.15064 2.36315 5.15238C2.3813 5.15984 2.4216 5.17259 2.50207 5.1834C2.67766 5.20701 2.92267 5.20834 3.33318 5.20834H16.6665ZM2.35254 5.14731C2.35221 5.14697 2.35232 5.14704 2.35254 5.14731V5.14731Z" fill="black"/>
</g>
</svg>
