<svg width="20" height="20" viewBox="0 0 20 20" fill="none" xmlns="http://www.w3.org/2000/svg">
<g opacity="0.4">
<path fill-rule="evenodd" clip-rule="evenodd" d="M9.99984 1.0415C5.05229 1.0415 1.0415 5.05229 1.0415 9.99984C1.0415 14.9474 5.05229 18.9582 9.99984 18.9582C14.9474 18.9582 18.9582 14.9474 18.9582 9.99984C18.9582 5.05229 14.9474 1.0415 9.99984 1.0415ZM2.2915 9.99984C2.2915 5.74264 5.74264 2.2915 9.99984 2.2915C11.9036 2.2915 13.6462 2.98165 14.991 4.12539C14.9854 4.13055 14.98 4.13583 14.9746 4.14123L4.14124 14.9743C4.13581 14.9798 4.1305 14.9853 4.1253 14.9909C2.98161 13.6461 2.2915 11.9036 2.2915 9.99984ZM5.00859 15.8742C6.35344 17.018 8.09604 17.7082 9.99984 17.7082C14.257 17.7082 17.7082 14.257 17.7082 9.99984C17.7082 8.09609 17.018 6.35352 15.8743 5.00869C15.8691 5.01424 15.8638 5.01972 15.8584 5.02512L5.02512 15.8583C5.01969 15.8637 5.01417 15.869 5.00859 15.8742Z" fill="black"/>
</g>
</svg>
