<svg width="240" height="240" viewBox="0 0 240 240" fill="none" xmlns="http://www.w3.org/2000/svg">
<g opacity="0.3">
<path d="M30 70C30 47.9086 47.9086 30 70 30H170C192.091 30 210 47.9086 210 70V170C210 192.091 192.091 210 170 210H70C47.9086 210 30 192.091 30 170V70Z" stroke="black" stroke-width="1.2"/>
<path d="M90 110C101.046 110 110 101.046 110 90C110 78.9543 101.046 70 90 70C78.9543 70 70 78.9543 70 90C70 101.046 78.9543 110 90 110Z" stroke="black" stroke-width="1.2" stroke-linecap="round" stroke-linejoin="round"/>
<path d="M40 200L68.7381 164.077C75.1098 156.113 86.5134 154.342 95 160C103.487 165.658 114.89 163.887 121.262 155.923L137.254 135.933C144.252 127.186 157.069 125.891 165.675 133.062L210 170" stroke="black" stroke-width="1.2"/>
</g>
</svg>
