<svg width="20" height="20" viewBox="0 0 20 20" fill="none" xmlns="http://www.w3.org/2000/svg">
<path fill-rule="evenodd" clip-rule="evenodd" d="M3.25439 2C3.26678 2.00001 3.27921 2.00001 3.29168 2.00001L16.6623 2C17.023 1.99996 17.3537 1.99993 17.6227 2.03609C17.9189 2.07592 18.232 2.16963 18.4895 2.42714C18.7471 2.68466 18.8408 2.99777 18.8806 3.294C18.9168 3.56301 18.9168 3.89371 18.9167 4.25439V4.32896C18.9168 4.68964 18.9168 5.02034 18.8806 5.28934C18.8408 5.58558 18.7471 5.89869 18.4895 6.1562C18.2448 6.40101 17.9497 6.49778 17.6667 6.54095V11.0053C17.6667 12.5368 17.6667 13.7498 17.5391 14.6992C17.4077 15.6763 17.1309 16.467 16.5073 17.0907C15.8837 17.7143 15.0929 17.991 14.1158 18.1224C13.1665 18.25 11.9535 18.25 10.422 18.25H9.49467C7.96319 18.25 6.75017 18.25 5.80082 18.1224C4.8238 17.991 4.03301 17.7143 3.40938 17.0907C2.78574 16.467 2.50898 15.6763 2.37762 14.6992C2.24999 13.7498 2.24999 12.5368 2.25001 11.0053V6.54095C1.96699 6.49778 1.67195 6.40101 1.42714 6.1562C1.16963 5.89869 1.07592 5.58558 1.03609 5.28934C0.999928 5.02034 0.999961 4.68964 1 4.32897C1.00001 4.31657 1.00001 4.30414 1.00001 4.29168C1.00001 4.27921 1.00001 4.26678 1 4.25439C0.999961 3.8937 0.999928 3.56301 1.03609 3.294C1.07592 2.99777 1.16963 2.68466 1.42714 2.42714C1.68466 2.16963 1.99777 2.07592 2.294 2.03609C2.56301 1.99993 2.8937 1.99996 3.25439 2ZM3.50001 6.58334V10.9583C3.50001 12.5473 3.50134 13.6763 3.61648 14.5327C3.72919 15.371 3.94059 15.8541 4.29326 16.2068C4.64594 16.5594 5.12898 16.7708 5.96739 16.8835C6.82377 16.9987 7.95266 17 9.54167 17H10.375C11.964 17 13.0929 16.9987 13.9493 16.8835C14.7877 16.7708 15.2708 16.5594 15.6234 16.2068C15.9761 15.8541 16.1875 15.371 16.3002 14.5327C16.4153 13.6763 16.4167 12.5473 16.4167 10.9583V6.58334H10.5833V11.8296L11.9938 10.2624C12.2247 10.0059 12.6198 9.98509 12.8764 10.216C13.133 10.4469 13.1538 10.8421 12.9229 11.0987L10.4229 13.8764C10.3043 14.0082 10.1355 14.0833 9.95834 14.0833C9.78117 14.0833 9.61234 14.0082 9.49375 13.8764L6.99379 11.0987C6.76287 10.8421 6.78367 10.4469 7.04024 10.216C7.29681 9.98509 7.69199 10.0059 7.9229 10.2624L9.33334 11.8296V6.58334H3.50001ZM16.625 5.33334C17.0355 5.33334 17.2805 5.33201 17.4561 5.3084C17.5366 5.29759 17.5769 5.28484 17.595 5.27738C17.5993 5.27564 17.602 5.2743 17.6036 5.27346L17.6057 5.27232L17.6068 5.27029C17.6077 5.26867 17.609 5.26591 17.6107 5.2617C17.6182 5.24355 17.6309 5.20325 17.6418 5.12279C17.6653 4.94719 17.6667 4.70218 17.6667 4.29168C17.6667 3.88117 17.6653 3.63616 17.6418 3.46056C17.6309 3.38009 17.6182 3.33979 17.6107 3.32164C17.609 3.31744 17.6077 3.31468 17.6068 3.31307L17.6057 3.31103L17.6036 3.30989C17.602 3.30905 17.5993 3.3077 17.595 3.30598C17.5769 3.29851 17.5366 3.28576 17.4561 3.27494C17.2805 3.25134 17.0355 3.25001 16.625 3.25001H3.29168C2.88117 3.25001 2.63616 3.25134 2.46056 3.27494C2.38009 3.28576 2.33979 3.29851 2.32164 3.30598C2.31744 3.3077 2.31468 3.30905 2.31307 3.30989L2.31104 3.31104L2.30989 3.31307C2.30905 3.31468 2.3077 3.31744 2.30598 3.32164C2.29851 3.33979 2.28576 3.38009 2.27494 3.46056C2.25134 3.63616 2.25001 3.88117 2.25001 4.29168C2.25001 4.70218 2.25134 4.94719 2.27494 5.12279C2.28576 5.20325 2.29851 5.24355 2.30598 5.2617C2.3077 5.26591 2.30905 5.26867 2.30989 5.27029L2.31104 5.27231L2.31307 5.27346C2.31468 5.2743 2.31744 5.27564 2.32164 5.27738C2.33979 5.28484 2.38009 5.29759 2.46056 5.3084C2.63616 5.33201 2.88117 5.33334 3.29168 5.33334H16.625ZM2.31104 5.27231C2.3107 5.27197 2.31081 5.27204 2.31104 5.27231V5.27231Z" fill="#233566"/>
</svg>
