<svg width="20" height="20" viewBox="0 0 20 20" fill="none" xmlns="http://www.w3.org/2000/svg">
<path fill-rule="evenodd" clip-rule="evenodd" d="M10.0003 1.0415C5.05277 1.0415 1.04199 5.05229 1.04199 9.99984C1.04199 14.9474 5.05277 18.9582 10.0003 18.9582C14.9479 18.9582 18.9587 14.9474 18.9587 9.99984C18.9587 5.05229 14.9479 1.0415 10.0003 1.0415ZM2.29199 9.99984C2.29199 5.74264 5.74313 2.2915 10.0003 2.2915C11.9041 2.2915 13.6467 2.98165 14.9915 4.12539C14.9859 4.13055 14.9805 4.13583 14.9751 4.14123L4.14173 14.9743C4.1363 14.9798 4.13098 14.9853 4.12579 14.9909C2.9821 13.6461 2.29199 11.9036 2.29199 9.99984ZM5.00907 15.8742C6.35392 17.018 8.09652 17.7082 10.0003 17.7082C14.2575 17.7082 17.7087 14.257 17.7087 9.99984C17.7087 8.09609 17.0185 6.35352 15.8747 5.00869C15.8696 5.01424 15.8643 5.01972 15.8589 5.02512L5.02561 15.8583C5.02017 15.8637 5.01466 15.869 5.00907 15.8742Z" fill="#233566"/>
</svg>
